<svg xmlns="http://www.w3.org/2000/svg" xmlns:xlink="http://www.w3.org/1999/xlink" xmlns:inkscape="http://www.inkscape.org/namespaces/inkscape" version="1.1" width="387.67189" height="120.8988" viewBox="0 0 387.67189 120.8988">
<defs>
<g id="font_1_49">
<path transform="matrix(.001,0,0,.001,0,0)" d="M117 597 278 676H294V117C294 79 295 56 299 47 302 38 308 31 318 26 328 21 348 18 378 18V0H129V18C160 18 180 21 189 26 198 30 204 37 208 45 212 53 214 77 214 117V474C214 522 212 553 209 567 207 577 203 585 197 590 191 594 183 597 175 597 163 597 146 592 125 582L117 597"/>
</g>
<g id="font_1_48">
<path transform="matrix(.001,0,0,.001,0,0)" d="M36 327C36 402 47 467 70 522 92 576 123 617 161 644 190 665 220 676 252 676 302 676 348 650 389 598 439 534 464 447 464 337 464 260 453 195 431 141 409 87 380 49 346 25 312 1 279-11 247-11 183-11 131 26 89 100 53 162 36 238 36 327M132 315C132 223 143 149 166 92 184 43 211 19 249 19 266 19 284 26 303 42 322 58 336 84 346 122 361 178 369 257 369 359 369 434 361 497 345 548 333 585 318 611 300 627 286 638 270 644 251 644 229 644 209 634 192 614 168 586 152 544 144 486 136 428 132 371 132 315"/>
</g>
<g id="font_1_51">
<path transform="matrix(.001,0,0,.001,0,0)" d="M51 536C69 580 93 615 122 639 151 663 187 676 230 676 283 676 324 658 352 624 373 598 384 570 384 542 384 493 353 443 293 392 333 376 364 353 385 323 406 293 417 259 417 219 417 161 398 112 362 70 314 16 246-11 156-11 111-11 81-5 65 5 49 15 41 27 41 41 41 50 44 58 52 65 59 72 68 76 80 76 88 76 96 74 104 72 110 70 122 64 142 54 161 44 175 38 183 36 195 32 207 31 221 31 254 31 283 43 308 69 332 95 345 125 345 161 345 186 339 211 328 236 319 254 310 267 300 277 286 290 266 302 242 313 218 323 193 329 167 329H152V343C177 346 203 355 229 371 255 386 273 404 285 426 297 447 303 471 303 497 303 530 292 557 271 578 250 598 224 609 193 609 143 609 101 582 67 528L51 536"/>
</g>
<g id="font_1_53">
<path transform="matrix(.001,0,0,.001,0,0)" d="M434 662 396 579H197L153 490C239 477 308 445 358 394 401 350 423 298 423 238 423 203 416 171 402 141 388 111 370 86 348 65 326 44 303 27 277 15 239-2 201-11 162-11 122-11 93-4 75 9 57 22 48 37 48 53 48 62 51 70 59 77 66 84 75 88 87 88 95 88 103 86 109 84 115 81 126 74 142 64 166 47 191 39 216 39 254 39 287 53 316 82 345 110 360 145 360 187 360 227 347 264 321 299 295 333 260 360 215 379 179 393 131 402 70 405L197 662H434"/>
</g>
<g id="font_1_84">
<path transform="matrix(.001,0,0,.001,0,0)" d="M579 662 586 507H567C563 534 559 553 553 565 543 584 529 598 512 607 495 616 473 621 446 621H353V115C353 74 357 49 366 39 378 25 397 18 423 18H446V0H166V18H189C217 18 237 26 249 43 255 53 259 77 259 115V621H180C148 621 126 618 114 614 96 607 82 595 70 578 58 560 51 537 49 507H30L38 662H579"/>
</g>
<g id="font_1_97">
<path transform="matrix(.001,0,0,.001,0,0)" d="M285 64C239 28 210 8 198 3 180-4 162-8 142-8 111-8 86 2 66 23 46 43 36 71 36 106 36 128 40 147 50 163 63 185 86 205 119 225 152 244 207 268 285 296V314C285 358 277 389 263 406 249 422 228 431 202 431 181 431 165 425 153 414 140 402 134 390 134 376L135 348C135 332 131 321 123 313 115 305 106 301 94 301 82 301 72 305 64 313 56 321 53 333 53 348 53 376 67 401 96 425 124 448 164 460 216 460 256 460 288 453 314 440 333 430 347 414 356 393 362 379 365 350 365 307V155C365 112 365 86 367 77 369 67 371 61 375 58 379 54 383 53 389 53 393 53 398 54 402 56 409 60 422 72 442 92V64C405 16 370-8 337-8 321-8 308-2 299 8 289 18 285 37 285 64M285 96V267C235 247 203 233 189 225 163 211 145 196 134 180 123 164 118 147 118 129 118 105 125 86 139 70 153 54 169 47 187 47 211 47 244 63 285 96"/>
</g>
<g id="font_1_114">
<path transform="matrix(.001,0,0,.001,0,0)" d="M162 460V360C199 426 237 460 277 460 295 460 309 454 321 444 333 433 339 420 339 406 339 393 334 382 326 374 318 365 308 361 296 361 284 361 272 366 258 378 244 389 233 395 227 395 221 395 214 391 208 385 193 371 178 349 162 319V104C162 79 165 60 171 48 175 39 183 32 194 26 204 20 220 18 240 18V0H11V18C33 18 50 21 62 28 70 33 75 41 79 53 81 59 82 75 82 101V274C82 326 80 357 78 367 76 377 72 384 66 389 60 393 53 396 45 396 35 396 23 393 11 388L6 406 142 460H162"/>
</g>
<g id="font_1_103">
<path transform="matrix(.001,0,0,.001,0,0)" d="M151 163C123 176 102 195 88 219 73 243 66 269 66 298 66 342 82 380 116 412 149 444 192 460 244 460 286 460 323 449 355 429H450C464 429 472 428 474 428 476 427 478 426 479 424 481 420 482 415 482 408 482 400 481 394 479 391 478 389 476 387 474 386 472 385 464 385 450 385H392C410 361 419 331 419 295 419 253 403 218 371 188 339 158 296 144 243 144 220 144 197 147 175 154 160 141 150 130 145 121 140 111 138 104 138 98 138 92 140 86 146 81 151 76 162 72 178 70 186 68 209 67 246 67 313 65 356 62 376 60 406 56 431 45 449 27 467 9 476-13 476-40 476-76 458-111 424-144 373-191 307-215 226-215 162-215 109-200 66-172 42-156 30-139 30-122 30-114 31-106 35-98 40-86 51-69 69-48 71-44 88-27 119 4 102 14 90 23 83 31 76 39 73 48 73 58 73 69 77 82 87 98 96 113 117 135 151 163M236 437C212 437 191 427 175 408 159 388 151 359 151 320 151 268 162 228 184 200 200 178 222 168 249 168 273 168 293 177 309 196 325 214 333 243 333 283 333 335 322 375 300 405 283 426 262 437 236 437M146 0C130-16 119-31 111-45 103-59 100-73 100-85 100-100 109-114 128-126 160-146 207-156 269-156 327-156 370-145 398-125 426-104 440-82 440-59 440-42 432-30 416-23 398-15 365-11 315-10 241-8 185-4 146 0"/>
</g>
<g id="font_1_101">
<path transform="matrix(.001,0,0,.001,0,0)" d="M106 279C106 212 122 160 155 123 187 85 226 66 270 66 298 66 323 74 345 90 367 106 385 133 400 173L416 163C408 118 388 77 356 41 323 5 282-13 232-13 178-13 132 7 94 49 56 91 37 147 37 218 37 294 56 354 96 397 135 439 184 461 244 461 294 461 335 444 367 411 399 378 416 334 416 279H106M106 307H313C311 335 308 356 303 368 295 386 283 400 267 410 251 420 234 426 216 426 189 426 165 415 144 394 122 373 110 344 106 307"/>
</g>
<g id="font_1_116">
<path transform="matrix(.001,0,0,.001,0,0)" d="M161 594V447H266V413H161V123C161 94 165 74 173 64 181 54 192 49 206 49 216 49 227 52 237 59 247 65 254 75 260 89H279C267 57 251 33 231 17 210 1 189-6 167-6 151-6 136-2 122 6 108 14 97 25 91 41 84 56 81 80 81 112V413H10V429C28 436 46 448 65 465 83 482 100 502 115 526 122 538 132 561 146 594H161"/>
</g>
<g id="font_1_32">
</g>
<g id="font_1_106">
<path transform="matrix(.001,0,0,.001,0,0)" d="M145 695C159 695 170 690 180 680 190 670 195 659 195 645 195 631 190 619 180 609 170 599 159 595 145 595 131 595 119 599 109 609 99 619 95 631 95 645 95 659 99 670 109 680 119 690 131 695 145 695M187 460V10C187-65 170-121 138-159 105-196 63-215 11-215-18-215-40-209-54-199-68-188-76-177-76-166-76-154-72-144-64-136-56-128-46-124-36-124-27-124-18-126-10-130-4-132 6-141 22-155 37-169 50-176 61-176 69-176 76-173 84-167 91-161 96-151 100-137 104-123 106-92 106-45V272C106 321 104 353 102 367 99 377 95 385 90 389 85 393 79 396 71 396 61 396 50 393 38 388L31 406 166 460H187"/>
</g>
<g id="font_1_99">
<path transform="matrix(.001,0,0,.001,0,0)" d="M411 170C399 111 375 66 340 34 305 2 266-13 224-13 172-13 128 8 90 50 52 92 34 150 34 223 34 293 55 350 97 394 139 438 189 460 248 460 291 460 327 448 355 425 383 402 398 378 398 353 398 340 394 330 386 323 378 315 367 312 353 312 333 312 319 318 310 330 304 336 300 349 298 369 296 388 290 403 279 413 267 423 251 428 231 428 199 428 173 416 153 392 126 360 113 317 113 265 113 211 126 164 152 124 178 83 214 63 259 63 291 63 319 73 345 95 363 110 380 137 397 177L411 170"/>
</g>
<g id="font_1_111">
<path transform="matrix(.001,0,0,.001,0,0)" d="M250 460C318 460 372 434 413 383 447 339 465 288 465 232 465 192 455 151 436 110 417 69 391 38 357 18 323-2 286-13 245-13 177-13 124 13 84 67 50 112 34 163 34 219 34 260 44 301 64 341 84 381 111 411 144 431 177 450 212 460 250 460M235 429C217 429 200 423 183 413 165 403 151 385 141 359 130 333 125 300 125 260 125 195 137 139 163 92 189 44 223 21 266 21 297 21 323 34 344 60 364 86 375 130 375 194 375 273 357 336 323 382 300 413 271 429 235 429"/>
</g>
<g id="font_1_105">
<path transform="matrix(.001,0,0,.001,0,0)" d="M145 694C159 694 170 689 180 680 189 670 194 659 194 645 194 631 189 620 180 610 170 600 159 595 145 595 131 595 120 600 110 610 100 620 95 631 95 645 95 659 99 670 109 680 119 689 131 694 145 694M186 460V101C186 73 188 54 192 45 196 35 202 28 210 24 218 20 232 18 253 18V0H36V18C58 18 72 20 80 24 87 28 93 35 97 45 101 55 104 73 104 101V273C104 321 102 353 100 368 98 378 94 385 89 389 84 393 77 396 69 396 60 396 49 393 36 388L29 406 164 460H186"/>
</g>
<g id="font_1_115">
<path transform="matrix(.001,0,0,.001,0,0)" d="M320 460V308H304C292 356 276 388 257 406 237 423 213 432 183 432 159 432 141 426 127 414 113 402 106 388 106 374 106 355 111 339 122 327 132 313 152 299 184 284L255 250C321 217 354 174 354 122 354 81 338 48 308 24 277 0 243-13 205-13 177-13 146-8 111 1 100 4 91 6 84 6 76 6 71 2 67-6H51V153H67C76 107 93 72 119 49 145 26 174 15 206 15 228 15 246 21 260 35 274 48 282 64 282 83 282 105 274 123 258 139 242 154 210 173 163 197 116 220 85 241 71 261 56 279 49 303 49 331 49 367 61 398 87 423 112 447 145 460 185 460 202 460 223 456 249 449 265 444 276 442 282 442 287 442 291 443 294 445 296 447 300 452 304 460H320"/>
</g>
<g id="font_1_40">
<path transform="matrix(.001,0,0,.001,0,0)" d="M311-195V-213C261-188 220-159 188-126 140-78 104-23 79 40 53 104 41 170 41 240 41 340 65 432 115 516 165 599 230 658 311 694V674C270 652 237 621 211 583 185 544 166 495 154 437 141 378 135 316 135 252 135 182 140 119 151 63 159 18 170-17 182-44 194-71 210-97 230-123 250-148 277-172 311-195"/>
</g>
<g id="font_1_77">
<path transform="matrix(.001,0,0,.001,0,0)" d="M409 0 153 557V115C153 74 157 49 167 39 179 25 198 18 224 18H247V0H17V18H40C68 18 88 26 100 43 106 53 110 77 110 115V547C110 576 107 597 101 611 96 620 87 628 75 634 63 640 43 644 17 644V662H204L444 144 681 662H868V644H845C817 644 797 635 785 619 777 608 774 584 774 547V115C774 74 778 49 788 39 800 25 819 18 845 18H868V0H587V18H610C638 18 658 26 670 43 677 53 681 77 681 115V557L425 0H409"/>
</g>
<g id="font_1_73">
<path transform="matrix(.001,0,0,.001,0,0)" d="M309 18V0H25V18H48C75 18 95 26 108 42 116 52 120 77 120 117V545C120 578 117 600 113 611 109 619 103 626 93 632 79 640 64 644 48 644H25V662H309V644H285C257 644 238 636 226 620 217 609 213 584 213 545V117C213 83 215 61 220 51 223 43 230 36 240 30 254 22 269 18 285 18H309"/>
</g>
<g id="font_1_80">
<path transform="matrix(.001,0,0,.001,0,0)" d="M205 310V117C205 75 209 50 219 40 231 25 249 18 275 18H300V0H17V18H42C69 18 89 27 102 45 108 55 111 79 111 117V545C111 586 106 612 98 623 85 637 66 644 42 644H17V662H259C318 662 365 655 399 643 433 631 462 610 486 582 509 553 521 519 521 479 521 425 503 381 467 347 431 313 381 296 316 296 300 296 282 297 264 299 246 301 226 305 205 310M205 338C222 334 237 332 251 330 264 328 275 328 285 328 319 328 348 341 373 367 397 393 410 427 410 469 410 497 404 524 392 549 380 573 364 592 342 604 320 616 296 623 269 623 252 623 231 619 205 613V338"/>
</g>
<g id="font_1_41">
<path transform="matrix(.001,0,0,.001,0,0)" d="M22 674V694C72 670 113 641 146 608 192 560 228 505 254 441 279 377 292 310 292 241 292 139 267 47 217-35 167-117 102-177 22-213V-195C62-172 95-141 121-103 147-65 166-16 179 42 191 100 198 162 198 226 198 295 192 358 182 416 173 460 163 496 151 523 139 550 122 576 102 602 82 627 55 651 22 674"/>
</g>
<clipPath id="clip_2">
<path transform="matrix(1,0,0,-1,0,120.8988)" d="M29.111876 24.40875H185.74346V108.67755H29.111876Z"/>
</clipPath>
<clipPath id="clip_3">
<path transform="matrix(1,0,0,-1,0,120.8988)" d="M29.111876 24.40875H185.74346V108.67755H29.111876Z"/>
</clipPath>
<g id="font_1_50">
<path transform="matrix(.001,0,0,.001,0,0)" d="M458 127 412 0H21V18C136 122 217 208 264 275 310 341 334 402 334 457 334 499 321 533 295 560 269 587 239 601 204 601 171 601 142 591 116 572 90 553 71 525 59 489H41C49 549 69 595 103 627 137 659 179 676 229 676 283 676 328 658 364 624 400 589 418 548 418 502 418 468 410 435 395 401 370 348 331 292 277 234 196 145 145 92 125 74H298C333 74 358 75 372 78 386 80 399 85 411 93 422 101 432 112 440 127H458"/>
</g>
<clipPath id="clip_4">
<path transform="matrix(1,0,0,-1,0,120.8988)" d="M29.111876 24.40875H185.74346V108.67755H29.111876Z"/>
</clipPath>
<clipPath id="clip_5">
<path transform="matrix(1,0,0,-1,0,120.8988)" d="M29.111876 24.40875H185.74346V108.67755H29.111876Z"/>
</clipPath>
<g id="font_1_55">
<path transform="matrix(.001,0,0,.001,0,0)" d="M101 662H456V644L235-13H180L378 583H196C159 583 133 578 117 569 89 554 67 531 51 500L37 505 101 662"/>
</g>
<clipPath id="clip_6">
<path transform="matrix(1,0,0,-1,0,120.8988)" d="M29.111876 24.40875H185.74346V108.67755H29.111876Z"/>
</clipPath>
<g id="font_1_83">
<path transform="matrix(.001,0,0,.001,0,0)" d="M458 677V448H440C434 492 424 527 409 553 393 579 372 599 344 615 316 630 287 638 257 638 223 638 195 627 173 607 151 586 140 563 140 537 140 516 147 497 161 481 181 457 229 424 305 384 367 350 409 325 432 307 454 289 472 268 484 244 496 220 502 195 502 169 502 119 482 76 444 40 405 4 355-14 294-14 274-14 256-12 240-10 230-8 209-2 177 7 145 17 125 22 117 22 108 22 101 19 97 15 92 10 89 0 87-14H69V212H87C95 164 107 129 121 105 135 81 157 62 187 46 216 30 248 23 284 23 324 23 356 33 380 55 404 76 416 101 416 131 416 147 411 164 402 181 393 197 379 213 360 227 347 237 312 257 256 289 199 321 159 346 135 365 111 384 93 405 81 428 69 450 63 475 63 503 63 550 81 591 117 625 153 659 200 677 256 677 291 677 328 668 368 651 386 643 399 639 407 639 415 639 421 641 427 646 433 651 437 661 440 677H458"/>
</g>
<g id="font_1_117">
<path transform="matrix(.001,0,0,.001,0,0)" d="M423 447V176C423 124 424 93 427 81 429 69 433 61 439 57 444 52 450 50 458 50 468 50 479 53 492 59L499 42 365-13H343V81C304 39 275 13 255 3 235-7 213-13 191-13 165-13 143-6 125 8 107 22 94 41 87 64 80 86 77 119 77 161V360C77 381 74 396 70 404 65 412 58 419 49 423 40 427 24 429 1 429V447H158V148C158 106 165 78 179 65 193 52 211 46 232 46 246 46 261 50 279 59 297 68 318 85 343 110V363C343 388 338 405 329 414 319 423 300 428 271 429V447H423"/>
</g>
<g id="font_1_37">
<path transform="matrix(.001,0,0,.001,0,0)" d="M680 677 197-26H154L636 677H680M178 677C222 677 256 658 280 622 304 586 316 544 316 497 316 440 302 396 275 365 247 334 215 319 177 319 151 319 127 326 106 340 84 354 67 376 54 404 41 432 35 463 35 497 35 531 41 562 54 591 67 620 85 642 108 656 130 670 154 677 178 677M176 650C159 650 144 640 132 620 119 600 113 560 113 498 113 452 116 418 124 394 129 376 137 362 149 353 156 347 165 344 175 344 190 344 203 352 215 369 231 394 239 436 239 495 239 556 231 599 215 625 205 641 192 650 176 650M657 329C680 329 703 321 726 307 749 292 767 271 779 243 791 215 798 184 798 150 798 92 784 49 756 19 728-11 696-26 659-26 635-26 611-18 589-4 567 10 549 30 537 57 524 84 518 115 518 150 518 184 524 216 537 244 549 272 567 294 589 308 611 322 634 329 657 329M658 303C642 303 628 294 617 276 602 253 595 210 595 147 595 89 602 48 618 25 628 8 642 0 658 0 672 0 686 9 698 27 713 51 721 91 721 149 721 210 713 253 698 278 687 294 674 303 658 303"/>
</g>
<clipPath id="clip_7">
<path transform="matrix(1,0,0,-1,0,120.8988)" d="M29.111876 24.40875H185.74346V108.67755H29.111876Z"/>
</clipPath>
<clipPath id="clip_8">
<path transform="matrix(1,0,0,-1,0,120.8988)" d="M29.111876 24.40875H185.74346V108.67755H29.111876Z"/>
</clipPath>
<clipPath id="clip_9">
<path transform="matrix(1,0,0,-1,0,120.8988)" d="M29.111876 24.40875H185.74346V108.67755H29.111876Z"/>
</clipPath>
<clipPath id="clip_10">
<path transform="matrix(1,0,0,-1,0,120.8988)" d="M29.111876 24.40875H185.74346V108.67755H29.111876Z"/>
</clipPath>
<g id="font_11_40">
<path transform="matrix(.001,0,0,.001,0,0)" d="M321 677V655C287 633 263 611 247 590 224 560 207 523 195 477 179 420 171 340 171 238 171 142 178 67 192 14 206-38 226-81 250-115 267-137 291-157 321-175V-199C243-173 176-119 122-38 67 42 40 135 40 241 40 345 67 437 121 517 175 597 242 651 321 677"/>
</g>
<g id="font_11_97">
<path transform="matrix(.001,0,0,.001,0,0)" d="M286 67C230 19 180-5 136-5 110-5 88 3 71 20 53 36 45 57 45 83 45 118 60 149 90 177 120 205 185 242 286 289V334C286 368 284 390 280 399 276 408 268 416 258 423 248 429 236 433 224 433 202 433 185 428 171 419 163 413 159 406 159 398 159 391 163 383 172 373 184 359 191 345 191 333 191 317 185 303 173 292 161 280 145 275 126 275 106 275 89 281 75 293 61 305 54 320 54 337 54 360 63 382 82 404 100 425 126 441 159 453 192 464 227 470 263 470 306 470 340 460 366 442 391 424 407 404 415 383 419 369 422 337 422 289V111C422 90 422 77 424 72 426 66 428 62 432 60 435 57 439 56 443 56 451 56 460 62 469 74L483 63C467 38 450 20 433 10 415 0 396-5 374-5 347-5 326 0 312 12 298 24 289 42 286 67M286 103V256C246 232 217 208 198 182 185 164 179 146 179 128 179 113 184 100 195 89 203 80 214 76 229 76 245 76 264 85 286 103"/>
</g>
<g id="font_11_41">
<path transform="matrix(.001,0,0,.001,0,0)" d="M12-199V-177C46-154 71-132 87-111 109-81 126-44 139 0 154 57 162 137 162 239 162 335 155 410 141 463 127 516 107 559 83 593 66 615 42 635 12 653V677C90 651 157 597 211 516 265 434 293 341 293 236 293 132 265 40 211-40 157-120 90-173 12-199"/>
</g>
<g id="font_11_32">
</g>
<g id="font_11_66">
<path transform="matrix(.001,0,0,.001,0,0)" d="M445 351C507 336 551 318 577 298 613 268 632 229 632 183 632 133 612 91 572 59 522 19 451 0 357 0H21V18C51 18 72 20 83 26 94 32 102 39 106 49 110 58 113 80 113 116V546C113 582 110 604 106 613 102 622 94 629 83 635 71 641 51 644 21 644V662H338C414 662 467 655 499 642 531 628 556 608 574 581 592 554 602 526 602 496 602 464 590 435 567 410 543 385 503 365 445 351M267 364C313 364 347 369 369 380 391 390 408 405 420 424 432 442 438 466 438 496 438 525 432 549 420 568 408 586 392 600 370 610 348 620 314 625 267 625V364M267 326V114 89C267 71 271 58 280 49 288 40 302 36 320 36 346 36 370 41 392 53 414 65 430 82 442 104 454 126 460 150 460 177 460 208 452 236 438 260 424 284 404 302 379 312 354 322 317 326 267 326"/>
</g>
<g id="font_11_67">
<path transform="matrix(.001,0,0,.001,0,0)" d="M667 677V448H648C634 508 607 553 568 585 529 617 485 633 436 633 394 633 356 621 322 597 287 573 262 542 246 504 225 455 215 400 215 340 215 280 222 226 237 178 252 129 276 92 308 68 340 43 381 31 432 31 474 31 512 40 547 58 581 76 618 107 656 152V95C619 56 580 28 540 11 500-5 453-14 399-14 328-14 265 0 211 28 156 56 114 96 84 149 54 202 40 259 40 319 40 382 56 442 89 498 122 554 167 598 223 630 279 661 338 677 402 677 448 677 497 667 549 647 579 635 598 629 606 629 616 629 625 632 633 640 641 648 646 660 648 677H667"/>
</g>
<g id="font_11_110">
<path transform="matrix(.001,0,0,.001,0,0)" d="M220 457V397C243 423 265 441 287 453 309 464 332 470 357 470 386 470 410 461 430 445 450 429 463 408 470 384 475 365 478 329 478 277V100C478 64 481 42 487 34 493 25 507 20 527 18V0H296V18C313 20 325 27 333 39 338 47 341 67 341 100V303C341 340 339 363 336 373 333 383 328 390 321 396 314 401 306 404 298 404 270 404 244 384 220 344V100C220 65 223 43 229 34 235 25 247 20 265 18V0H34V18C53 20 67 26 75 36 80 43 83 64 83 100V357C83 391 79 413 73 422 67 430 54 436 34 438V457H220"/>
</g>
<g id="font_11_101">
<path transform="matrix(.001,0,0,.001,0,0)" d="M420 245H170C172 184 188 136 218 101 240 74 267 61 299 61 319 61 336 66 352 77 368 87 385 107 404 136L420 125C395 74 368 38 338 18 308-2 273-13 234-13 166-13 115 12 81 64 53 106 39 158 39 221 39 297 59 357 100 402 141 447 189 470 245 470 291 470 331 451 365 413 399 375 418 319 420 245M300 277C300 329 297 365 291 385 285 405 277 420 265 430 258 435 249 438 238 438 220 438 206 430 196 414 176 384 167 344 167 294V277H300"/>
</g>
<g id="font_11_100">
<path transform="matrix(.001,0,0,.001,0,0)" d="M478 662V137C478 101 478 80 480 74 482 63 487 55 495 50 502 44 515 41 534 40V24L341-13V59C317 31 297 12 279 2 261-8 240-13 218-13 159-13 113 12 80 64 52 106 39 158 39 220 39 269 47 313 64 352 80 391 103 420 133 440 163 460 195 470 229 470 250 470 269 465 286 457 303 449 321 434 341 413V551C341 585 339 606 336 614 332 623 327 630 319 635 311 639 296 642 275 642V662H478M341 353C317 399 287 422 252 422 240 422 230 418 223 412 211 402 201 384 193 359 185 333 182 294 182 242 182 184 186 142 194 114 202 86 214 66 229 54 236 48 246 45 260 45 288 45 315 67 341 112V353"/>
</g>
<g id="font_11_115">
<path transform="matrix(.001,0,0,.001,0,0)" d="M322 469 330 313H313C293 359 272 391 251 408 229 425 208 434 188 434 174 434 162 429 153 420 143 411 139 401 139 389 139 380 142 372 149 364 159 350 188 327 236 295 284 263 315 235 331 213 346 190 354 165 354 137 354 111 347 86 334 62 321 37 303 18 280 6 257-6 232-13 204-13 182-13 153-6 117 7 107 10 100 12 97 12 86 12 77 4 70-11H54L46 152H63C77 108 96 76 122 55 148 33 172 23 195 23 211 23 224 27 234 37 244 47 249 58 249 72 249 88 244 101 234 113 224 124 202 141 168 165 118 199 86 225 72 244 50 270 40 300 40 332 40 367 52 399 76 427 100 455 135 470 181 470 205 470 229 464 253 452 261 447 268 445 274 445 280 445 284 446 288 448 292 450 298 457 306 469H322"/>
</g>
<g id="font_11_109">
<path transform="matrix(.001,0,0,.001,0,0)" d="M223 457V396C248 424 271 443 293 454 314 464 337 470 363 470 392 470 416 463 436 449 456 435 471 415 482 387 508 416 533 437 557 450 581 463 606 470 632 470 664 470 689 462 708 448 726 434 739 415 747 393 754 371 758 335 758 287V100C758 64 761 42 767 34 773 25 787 20 807 18V0H571V18C589 19 603 26 612 39 618 47 621 68 621 100V296C621 336 619 362 616 373 612 384 607 392 600 398 593 403 585 406 576 406 562 406 547 400 533 390 519 380 504 365 490 345V100C490 66 493 46 499 38 506 26 520 19 542 18V0H305V18C317 18 327 21 335 27 342 33 347 40 350 48 352 56 354 73 354 100V296C354 337 352 363 349 373 345 383 340 392 332 398 324 404 316 407 308 407 294 407 282 403 272 396 256 386 240 369 223 345V100C223 67 226 46 232 36 238 26 252 20 272 18V0H37V18C56 20 70 26 78 36 83 43 86 64 86 100V357C86 391 82 413 76 422 70 430 57 436 37 438V457H223"/>
</g>
<g id="font_11_111">
<path transform="matrix(.001,0,0,.001,0,0)" d="M249 470C289 470 326 459 360 439 394 419 419 390 437 352 455 314 464 272 464 228 464 163 447 109 415 65 375 13 320-13 250-13 181-13 128 11 91 59 54 107 36 162 36 226 36 291 55 348 93 397 131 445 183 470 249 470M251 436C234 436 220 429 208 417 196 404 188 379 184 342 180 305 179 254 179 188 179 153 181 121 186 91 189 67 197 50 209 38 221 26 234 20 249 20 263 20 276 24 286 32 298 43 307 59 311 79 317 109 321 172 321 266 321 321 317 359 311 380 305 400 296 415 284 425 275 432 264 436 251 436"/>
</g>
<g id="font_11_114">
<path transform="matrix(.001,0,0,.001,0,0)" d="M223 457V353C253 400 280 431 303 447 325 462 347 470 369 470 387 470 401 464 412 453 423 442 429 426 429 406 429 384 423 367 413 355 402 343 389 337 375 337 357 337 342 342 330 353 317 364 309 370 307 372 303 374 300 375 296 375 286 375 277 371 269 364 255 353 245 337 239 317 228 285 223 250 223 212V107L224 80C224 61 225 49 227 44 231 35 236 29 244 25 252 21 265 18 283 18V0H37V18C56 19 69 24 76 34 83 43 87 67 87 107V360C87 386 85 402 83 410 80 418 75 425 69 429 63 433 52 436 37 438V457H223"/>
</g>
<g id="font_11_116">
<path transform="matrix(.001,0,0,.001,0,0)" d="M215 624V457H323V408H215V126C215 100 216 83 218 75 220 67 225 61 231 57 237 52 243 50 249 50 269 50 289 66 309 98L323 87C297 25 254-5 195-5 165-5 141 2 121 18 101 34 88 52 83 72 79 82 78 112 78 162V408H19V425C59 454 94 484 123 516 152 548 177 584 199 624H215"/>
</g>
<g id="font_11_103">
<path transform="matrix(.001,0,0,.001,0,0)" d="M327 451H480V397H393C409 381 420 367 426 354 434 336 438 318 438 299 438 266 429 238 411 214 393 190 368 171 337 158 306 144 278 138 254 138 252 138 232 138 196 140 181 140 169 135 159 125 149 115 144 104 144 91 144 79 148 70 157 62 166 54 181 51 201 51L286 52C354 52 401 44 427 30 463 10 482-21 482-65 482-93 473-118 456-141 439-163 417-180 390-191 348-207 299-215 245-215 203-215 166-211 132-203 98-195 74-183 60-169 45-155 38-140 38-125 38-110 43-97 54-85 65-73 86-63 117-55 75-33 54-5 54 31 54 53 62 75 79 96 96 117 124 136 162 152 118 168 86 189 67 215 47 241 38 271 38 305 38 349 56 388 92 421 128 453 175 470 233 470 263 470 294 463 327 451M242 440C223 440 207 430 194 411 181 392 175 353 175 293 175 244 181 211 194 193 206 175 222 166 240 166 259 166 275 175 288 193 301 211 308 245 308 297 308 355 300 395 286 417 276 432 261 440 242 440M213-66C180-66 158-69 147-75 129-85 120-98 120-116 120-132 129-147 148-161 167-174 203-181 257-181 302-181 337-175 363-163 389-151 402-134 402-112 402-104 399-97 395-92 386-82 373-75 355-71 337-67 290-66 213-66"/>
</g>
<clipPath id="clip_12">
<path transform="matrix(1,0,0,-1,0,120.8988)" d="M29.111876 24.40875H185.74346V108.67755H29.111876Z"/>
</clipPath>
<clipPath id="clip_13">
<path transform="matrix(1,0,0,-1,42.164506,86.37779)" d="M-4.25-4.25H4.25V4.25H-4.25Z"/>
</clipPath>
<clipPath id="clip_14">
<path transform="matrix(1,0,0,-1,107.427669,59.411775)" d="M-4.25-4.25H4.25V4.25H-4.25Z"/>
</clipPath>
<clipPath id="clip_15">
<path transform="matrix(1,0,0,-1,172.69083,18.96275)" d="M-4.25-4.25H4.25V4.25H-4.25Z"/>
</clipPath>
<g id="font_1_108">
<path transform="matrix(.001,0,0,.001,0,0)" d="M185 694V101C185 73 187 54 191 45 195 36 201 29 210 25 218 20 234 18 257 18V0H38V18C58 18 72 20 80 24 87 28 93 35 97 45 101 55 104 73 104 101V507C104 557 102 588 100 600 98 612 94 620 89 624 84 628 78 630 70 630 62 630 51 627 38 623L30 640 163 694H185"/>
</g>
<g id="font_1_71">
<path transform="matrix(.001,0,0,.001,0,0)" d="M614 677 631 468H614C596 520 574 559 547 586 507 624 457 643 395 643 311 643 247 609 203 543 165 486 147 419 147 342 147 278 159 221 184 169 208 117 240 78 280 54 319 30 360 18 402 18 426 18 449 21 472 27 495 33 517 43 539 55V246C539 279 536 301 531 311 525 321 517 329 507 335 497 340 478 343 452 343V361H708V343H696C670 343 653 334 644 317 637 305 634 281 634 246V43C596 23 559 8 523 0 486-9 445-14 401-14 273-14 176 26 110 108 60 169 35 240 35 321 35 379 49 434 77 488 110 551 156 600 214 635 262 663 320 677 386 677 410 677 431 675 451 671 471 667 499 659 535 646 553 638 566 635 572 635 578 635 583 637 587 643 591 649 594 660 596 677H614"/>
</g>
<g id="font_1_76">
<path transform="matrix(.001,0,0,.001,0,0)" d="M573 183 589 180 533 0H20V18H45C73 18 93 27 105 45 111 55 115 80 115 118V545C115 586 110 612 102 623 89 637 70 644 45 644H20V662H320V644C284 644 260 641 246 634 232 627 222 618 217 608 211 598 209 573 209 534V118C209 90 211 72 217 62 221 55 227 50 235 47 243 43 268 42 311 42H359C410 42 446 45 466 53 486 60 505 73 522 93 539 112 556 142 573 183"/>
</g>
<g id="font_1_65">
<path transform="matrix(.001,0,0,.001,0,0)" d="M458 222H201L156 117C145 91 140 72 140 60 140 49 144 40 154 32 163 24 184 20 216 18V0H8V18C35 22 53 29 62 37 78 53 96 84 117 132L350 677H367L597 126C615 82 632 53 647 40 662 27 683 20 711 18V0H450V18C476 19 493 23 503 31 512 38 517 47 517 59 517 73 510 95 498 126L458 222M444 258 332 525 216 258H444"/>
</g>
<g id="font_1_45">
<path transform="matrix(.001,0,0,.001,0,0)" d="M41 261H293V188H41V261"/>
</g>
<g id="font_1_79">
<path transform="matrix(.001,0,0,.001,0,0)" d="M366 677C452 677 526 644 589 579 652 513 684 432 684 335 684 234 652 151 588 85 524 19 448-14 358-14 266-14 190 18 128 82 66 146 35 230 35 333 35 438 71 524 143 591 205 648 279 677 366 677M356 642C297 642 250 620 214 576 169 521 147 441 147 335 147 227 170 144 216 86 252 42 299 20 357 20 419 20 470 44 511 92 551 140 572 217 572 322 572 435 549 519 505 575 469 619 419 642 356 642"/>
</g>
<g id="font_1_75">
<path transform="matrix(.001,0,0,.001,0,0)" d="M299 367 543 125C583 84 617 56 645 42 673 28 702 20 730 18V0H416V18C434 18 448 21 456 27 464 33 469 41 469 49 469 57 467 64 464 70 460 76 450 87 434 104L205 331V117C205 83 207 61 211 51 214 43 221 36 232 30 246 22 260 18 276 18H299V0H17V18H40C67 18 87 26 100 42 107 52 111 77 111 117V545C111 578 109 600 105 612 101 620 95 626 85 632 70 640 55 644 40 644H17V662H299V644H276C260 644 246 640 232 633 222 627 215 619 211 609 207 599 205 577 205 545V342C211 348 234 369 272 404 368 492 427 552 447 582 455 594 460 606 460 616 460 623 456 629 450 635 443 641 432 644 416 644H400V662H644V644C629 644 616 642 604 638 592 634 578 627 561 617 544 607 523 590 499 568 491 561 458 528 400 468L299 367"/>
</g>
<g id="font_1_82">
<path transform="matrix(.001,0,0,.001,0,0)" d="M676 0H499L275 310C258 309 244 309 234 309 230 309 225 309 220 309 215 309 210 309 206 310V117C206 75 210 50 219 40 231 25 250 18 275 18H301V0H17V18H42C70 18 90 27 102 45 108 55 112 79 112 117V545C112 586 107 612 99 623 86 637 67 644 42 644H17V662H258C328 662 380 656 414 646 447 636 475 617 499 590 522 562 534 530 534 492 534 451 520 416 494 386 467 356 426 334 371 322L507 132C538 88 565 59 588 45 610 31 640 22 676 18V0M206 340C212 340 217 340 222 340 226 340 230 340 233 340 296 340 344 353 376 381 408 408 424 443 424 485 424 526 411 560 385 586 359 612 324 625 282 625 263 625 238 622 206 616V340"/>
</g>
<g id="font_1_43">
<path transform="matrix(.001,0,0,.001,0,0)" d="M261 69V313H18V353H261V595H300V353H544V313H300V69H261"/>
</g>
<g id="font_1_85">
<path transform="matrix(.001,0,0,.001,0,0)" d="M477 644V662H711V644H687C660 644 640 633 626 611 619 601 616 577 616 541V272C616 206 609 154 596 118 583 81 557 50 519 24 480-2 427-15 361-15 289-15 234-2 197 22 159 47 133 81 117 123 107 152 102 206 102 286V545C102 585 96 612 85 625 73 637 55 644 30 644H5V662H292V644H266C238 644 219 635 208 618 199 606 195 582 195 545V256C195 230 197 201 202 168 206 134 215 108 228 90 240 72 258 56 281 44 304 32 333 26 367 26 410 26 449 35 483 54 517 73 541 97 553 127 565 156 572 206 572 277V545C572 586 567 612 559 623 546 637 527 644 502 644H477"/>
</g>
<g id="font_1_52">
<path transform="matrix(.001,0,0,.001,0,0)" d="M465 244V175H376V0H296V175H16V237L323 676H376V244H465M296 244V573L63 244H296"/>
</g>
<g id="font_1_110">
<path transform="matrix(.001,0,0,.001,0,0)" d="M162 366C214 428 264 460 312 460 336 460 356 454 374 442 392 430 406 410 417 382 423 362 427 332 427 292V101C427 73 429 53 434 43 437 35 443 28 451 24 459 20 474 18 496 18V0H274V18H284C304 18 319 21 327 27 335 33 341 43 345 55 346 60 347 75 347 101V284C347 324 341 354 331 372 320 390 302 400 277 400 238 400 200 379 162 337V101C162 71 163 52 167 45 171 35 178 28 186 24 194 20 210 18 234 18V0H13V18H23C45 18 61 23 69 35 77 46 81 68 81 101V267C81 321 79 353 77 365 75 377 71 385 66 389 61 393 54 396 46 396 36 396 25 393 13 388L6 406 141 460H162V366"/>
</g>
<clipPath id="clip_16">
<path transform="matrix(1,0,0,-1,0,120.8988)" d="M229.6003 24.40875H386.23188V108.67755H229.6003Z"/>
</clipPath>
<clipPath id="clip_17">
<path transform="matrix(1,0,0,-1,0,120.8988)" d="M229.6003 24.40875H386.23188V108.67755H229.6003Z"/>
</clipPath>
<clipPath id="clip_18">
<path transform="matrix(1,0,0,-1,0,120.8988)" d="M229.6003 24.40875H386.23188V108.67755H229.6003Z"/>
</clipPath>
<clipPath id="clip_19">
<path transform="matrix(1,0,0,-1,0,120.8988)" d="M229.6003 24.40875H386.23188V108.67755H229.6003Z"/>
</clipPath>
<clipPath id="clip_20">
<path transform="matrix(1,0,0,-1,0,120.8988)" d="M229.6003 24.40875H386.23188V108.67755H229.6003Z"/>
</clipPath>
<clipPath id="clip_21">
<path transform="matrix(1,0,0,-1,0,120.8988)" d="M229.6003 24.40875H386.23188V108.67755H229.6003Z"/>
</clipPath>
<clipPath id="clip_22">
<path transform="matrix(1,0,0,-1,0,120.8988)" d="M229.6003 24.40875H386.23188V108.67755H229.6003Z"/>
</clipPath>
<clipPath id="clip_23">
<path transform="matrix(1,0,0,-1,0,120.8988)" d="M229.6003 24.40875H386.23188V108.67755H229.6003Z"/>
</clipPath>
<clipPath id="clip_24">
<path transform="matrix(1,0,0,-1,0,120.8988)" d="M229.6003 24.40875H386.23188V108.67755H229.6003Z"/>
</clipPath>
<clipPath id="clip_25">
<path transform="matrix(1,0,0,-1,0,120.8988)" d="M229.6003 24.40875H386.23188V108.67755H229.6003Z"/>
</clipPath>
<clipPath id="clip_26">
<path transform="matrix(1,0,0,-1,0,120.8988)" d="M229.6003 24.40875H386.23188V108.67755H229.6003Z"/>
</clipPath>
<clipPath id="clip_27">
<path transform="matrix(1,0,0,-1,0,120.8988)" d="M229.6003 24.40875H386.23188V108.67755H229.6003Z"/>
</clipPath>
<clipPath id="clip_28">
<path transform="matrix(1,0,0,-1,242.33457,83.84973)" d="M-4.25-4.25H4.25V4.25H-4.25Z"/>
</clipPath>
<clipPath id="clip_29">
<path transform="matrix(1,0,0,-1,306.00596,71.20941)" d="M-4.25-4.25H4.25V4.25H-4.25Z"/>
</clipPath>
<clipPath id="clip_30">
<path transform="matrix(1,0,0,-1,369.67735,16.434693)" d="M-4.25-4.25H4.25V4.25H-4.25Z"/>
</clipPath>
<g id="font_11_98">
<path transform="matrix(.001,0,0,.001,0,0)" d="M210 662V411C248 450 290 470 336 470 367 470 396 460 424 442 452 424 473 398 489 364 505 330 513 291 513 247 513 197 503 151 483 111 463 70 437 39 404 18 370-2 332-13 290-13 265-13 243-9 224-1 204 6 185 18 167 36L92-12H75V567C75 593 74 610 72 616 68 625 63 632 56 636 49 640 37 643 21 644V662H210M210 367V164C210 122 211 96 213 85 216 65 224 50 236 38 248 26 264 21 284 21 300 21 315 25 327 35 339 44 349 63 357 91 365 119 369 169 369 242 369 312 360 360 342 386 329 405 312 415 291 415 263 415 236 399 210 367"/>
</g>
<g id="font_11_65">
<path transform="matrix(.001,0,0,.001,0,0)" d="M416 188H182L154 124C145 102 141 85 141 71 141 52 148 38 163 30 171 24 193 20 228 18V0H8V18C31 21 50 31 66 47 81 63 100 97 123 147L360 676H369L608 133C630 81 649 49 664 36 675 26 691 20 711 18V0H391V18H404C429 18 447 21 458 29 465 34 469 41 469 51 469 57 468 63 466 69 465 72 460 84 451 106L416 188M399 225 301 453 199 225H399"/>
</g>
<g id="font_11_117">
<path transform="matrix(.001,0,0,.001,0,0)" d="M475 457V99C475 64 478 42 484 34 490 25 504 20 524 18V0H338V61C316 35 294 16 272 4 250-7 226-13 199-13 173-13 151-5 131 10 111 26 97 44 90 65 83 86 80 123 80 176V357C80 391 76 413 70 422 64 430 51 436 31 438V457H217V145C217 112 218 91 221 81 224 71 229 64 236 60 242 55 250 53 259 53 271 53 281 56 291 62 304 70 320 87 338 113V357C338 391 334 413 328 422 322 430 309 436 289 438V457H475"/>
</g>
<g id="font_11_120">
<path transform="matrix(.001,0,0,.001,0,0)" d="M304 280 383 129C410 77 432 44 448 30 456 22 468 18 484 18V0H229V18C249 19 261 21 266 25 270 29 273 34 273 40 273 49 268 63 258 83L218 157 185 108C169 85 161 72 159 68 156 62 155 56 155 51 155 43 156 37 159 32 162 27 166 23 172 21 177 19 187 18 202 18V0H23V18C45 18 65 24 83 36 101 48 128 80 164 132L202 188 123 333C97 380 77 409 65 420 52 431 38 437 23 438V457H276V438H263L237 429C234 427 233 423 233 418 233 413 234 408 236 403 236 400 241 391 250 376L285 310 304 336C330 372 343 397 343 412 343 418 340 424 334 429 328 433 318 436 304 438V457H465V438C445 438 427 432 410 420 392 408 373 386 352 353L304 280"/>
</g>
<g id="font_11_105">
<path transform="matrix(.001,0,0,.001,0,0)" d="M144 678C164 678 182 670 197 655 211 640 219 622 219 602 219 581 211 563 197 549 182 534 164 527 144 527 122 527 104 534 90 549 75 563 68 581 68 602 68 622 75 640 90 655 104 670 122 678 144 678M212 457V95C212 62 215 41 223 33 230 24 245 19 267 18V0H21V18C41 18 55 24 65 35 71 42 75 62 75 95V361C75 393 71 414 64 423 56 432 42 437 21 438V457H212"/>
</g>
<g id="font_11_102">
<path transform="matrix(.001,0,0,.001,0,0)" d="M234 409V92C234 61 237 42 244 34 254 22 273 16 301 18V0H32V18C52 18 67 20 76 24 84 28 90 35 94 43 97 51 99 67 99 92V409H32V457H99V490L98 513C98 559 115 598 149 630 183 661 230 677 289 677 329 677 358 669 378 654 397 639 407 623 407 605 407 590 401 577 389 567 377 556 361 551 341 551 324 551 311 555 301 564 291 572 286 582 286 593 286 596 287 602 289 611 290 617 291 622 291 627 291 633 289 638 285 642 279 646 273 649 266 649 256 649 248 645 242 637 236 629 233 617 233 600L234 515V457H301V409H234"/>
</g>
<clipPath id="clip_31">
<path transform="matrix(1,0,0,-1,0,120.8988)" d="M229.6003 24.40875H386.23188V108.67755H229.6003Z"/>
</clipPath>
<clipPath id="clip_32">
<path transform="matrix(1,0,0,-1,242.33457,88.06317)" d="M-4.75-4.75H4.75V4.75H-4.75Z"/>
</clipPath>
<clipPath id="clip_33">
<path transform="matrix(1,0,0,-1,306.00596,29.075013)" d="M-4.75-4.75H4.75V4.75H-4.75Z"/>
</clipPath>
<clipPath id="clip_34">
<path transform="matrix(1,0,0,-1,369.67735,20.648133)" d="M-4.75-4.75H4.75V4.75H-4.75Z"/>
</clipPath>
<clipPath id="clip_35">
<path transform="matrix(1,0,0,-1,0,120.8988)" d="M229.6003 24.40875H386.23188V108.67755H229.6003Z"/>
</clipPath>
<clipPath id="clip_36">
<path transform="matrix(1,0,0,-1,246.15485,88.06317)" d="M-7.25-7.25H7.25V7.25H-7.25Z"/>
</clipPath>
<clipPath id="clip_37">
<path transform="matrix(1,0,0,-1,309.82624,29.075013)" d="M-7.25-7.25H7.25V7.25H-7.25Z"/>
</clipPath>
<clipPath id="clip_38">
<path transform="matrix(1,0,0,-1,373.49763,20.648133)" d="M-7.25-7.25H7.25V7.25H-7.25Z"/>
</clipPath>
<g id="font_1_120">
<path transform="matrix(.001,0,0,.001,0,0)" d="M13 447H224V429C210 429 201 426 196 422 190 418 188 412 188 404 188 396 193 384 205 368 208 362 213 354 221 344L252 293 289 344C312 376 324 396 324 405 324 411 321 417 316 422 310 426 301 429 289 429V447H440V429C424 428 411 424 399 416 383 404 361 380 333 344L272 262 384 102C411 62 430 39 442 31 454 23 469 18 488 18V0H277V18C291 18 303 21 311 27 317 31 320 37 320 45 320 53 309 72 289 102L224 198 152 102C130 72 119 55 119 49 119 41 122 34 130 28 137 22 148 18 163 18V0H17V18C28 19 38 23 47 30 59 39 80 63 110 102L204 227 119 350C95 384 76 406 63 415 49 424 33 429 13 429V447"/>
</g>
<g id="font_1_121">
<path transform="matrix(.001,0,0,.001,0,0)" d="M6 447H214V429H204C189 429 178 425 171 419 163 413 160 405 160 396 160 383 165 365 176 343L285 118 385 365C391 378 394 391 394 404 394 410 392 414 390 417 387 421 383 424 378 426 372 428 363 429 349 429V447H494V429C482 427 472 425 466 421 460 417 453 410 445 399 441 395 436 382 428 362L246-83C228-126 205-159 177-181 148-203 121-215 95-215 75-215 59-209 47-198 35-187 29-174 29-160 29-146 33-135 42-127 51-119 63-115 79-115 89-115 104-118 123-125 136-130 144-133 147-133 157-133 167-128 179-118 191-108 202-88 214-59L246 18 85 355C80 365 72 377 62 393 54 404 47 412 42 416 34 420 22 425 6 429V447"/>
</g>
</defs>
<g>
<path transform="matrix(1,0,0,-1,0,120.8988)" d="M0 0H387.67189V120.8988H0Z" fill="#ffffff"/>
<path transform="matrix(1,0,0,-1,0,120.8988)" d="M29.111876 24.40875H185.74346V108.67755H29.111876Z" fill="#ffffff"/>
<path transform="matrix(1,0,0,-1,0,120.8988)" d="M42.16451 24.40875V27.40875"/>
<path transform="matrix(1,0,0,-1,0,120.8988)" stroke-width=".6" stroke-linecap="butt" stroke-linejoin="round" fill="none" stroke="#000000" d="M42.16451 24.40875V27.40875"/>
<use data-text="1" xlink:href="#font_1_49" transform="matrix(8,0,0,-8,36.164506,105.55255)"/>
<use data-text="0" xlink:href="#font_1_48" transform="matrix(8,0,0,-8,40.164506,105.55255)"/>
<use data-text="0" xlink:href="#font_1_48" transform="matrix(8,0,0,-8,44.164506,105.55255)"/>
<path transform="matrix(1,0,0,-1,0,120.8988)" d="M107.427669 24.40875V27.40875"/>
<path transform="matrix(1,0,0,-1,0,120.8988)" stroke-width=".6" stroke-linecap="butt" stroke-linejoin="round" fill="none" stroke="#000000" d="M107.427669 24.40875V27.40875"/>
<use data-text="3" xlink:href="#font_1_51" transform="matrix(8,0,0,-8,101.427669,105.55255)"/>
<use data-text="0" xlink:href="#font_1_48" transform="matrix(8,0,0,-8,105.427669,105.55255)"/>
<use data-text="0" xlink:href="#font_1_48" transform="matrix(8,0,0,-8,109.427669,105.55255)"/>
<path transform="matrix(1,0,0,-1,0,120.8988)" d="M172.69083 24.40875V27.40875"/>
<path transform="matrix(1,0,0,-1,0,120.8988)" stroke-width=".6" stroke-linecap="butt" stroke-linejoin="round" fill="none" stroke="#000000" d="M172.69083 24.40875V27.40875"/>
<use data-text="5" xlink:href="#font_1_53" transform="matrix(8,0,0,-8,166.69083,105.55255)"/>
<use data-text="0" xlink:href="#font_1_48" transform="matrix(8,0,0,-8,170.69083,105.55255)"/>
<use data-text="0" xlink:href="#font_1_48" transform="matrix(8,0,0,-8,174.69083,105.55255)"/>
<use data-text="T" xlink:href="#font_1_84" transform="matrix(9,0,0,-9,62.802667,117.5213)"/>
<use data-text="a" xlink:href="#font_1_97" transform="matrix(9,0,0,-9,68.30167,117.5213)"/>
<use data-text="r" xlink:href="#font_1_114" transform="matrix(9,0,0,-9,72.29767,117.5213)"/>
<use data-text="g" xlink:href="#font_1_103" transform="matrix(9,0,0,-9,75.29467,117.5213)"/>
<use data-text="e" xlink:href="#font_1_101" transform="matrix(9,0,0,-9,79.79467,117.5213)"/>
<use data-text="t" xlink:href="#font_1_116" transform="matrix(9,0,0,-9,83.79067,117.5213)"/>
<use data-text=" " xlink:href="#font_1_32" transform="matrix(9,0,0,-9,86.29267,117.5213)"/>
<use data-text="t" xlink:href="#font_1_116" transform="matrix(9,0,0,-9,88.54267,117.5213)"/>
<use data-text="r" xlink:href="#font_1_114" transform="matrix(9,0,0,-9,91.04467,117.5213)"/>
<use data-text="a" xlink:href="#font_1_97" transform="matrix(9,0,0,-9,94.04167,117.5213)"/>
<use data-text="j" xlink:href="#font_1_106" transform="matrix(9,0,0,-9,98.037677,117.5213)"/>
<use data-text="e" xlink:href="#font_1_101" transform="matrix(9,0,0,-9,100.53967,117.5213)"/>
<use data-text="c" xlink:href="#font_1_99" transform="matrix(9,0,0,-9,104.535678,117.5213)"/>
<use data-text="t" xlink:href="#font_1_116" transform="matrix(9,0,0,-9,108.53168,117.5213)"/>
<use data-text="o" xlink:href="#font_1_111" transform="matrix(9,0,0,-9,111.033679,117.5213)"/>
<use data-text="r" xlink:href="#font_1_114" transform="matrix(9,0,0,-9,115.533679,117.5213)"/>
<use data-text="i" xlink:href="#font_1_105" transform="matrix(9,0,0,-9,118.53068,117.5213)"/>
<use data-text="e" xlink:href="#font_1_101" transform="matrix(9,0,0,-9,121.03268,117.5213)"/>
<use data-text="s" xlink:href="#font_1_115" transform="matrix(9,0,0,-9,125.02868,117.5213)"/>
<use data-text=" " xlink:href="#font_1_32" transform="matrix(9,0,0,-9,128.52968,117.5213)"/>
<use data-text="(" xlink:href="#font_1_40" transform="matrix(9,0,0,-9,130.77968,117.5213)"/>
<use data-text="M" xlink:href="#font_1_77" transform="matrix(9,0,0,-9,133.77667,117.5213)"/>
<use data-text="I" xlink:href="#font_1_73" transform="matrix(9,0,0,-9,141.77768,117.5213)"/>
<use data-text="P" xlink:href="#font_1_80" transform="matrix(9,0,0,-9,144.77468,117.5213)"/>
<use data-text=")" xlink:href="#font_1_41" transform="matrix(9,0,0,-9,149.77867,117.5213)"/>
<g clip-path="url(#clip_2)">
<path transform="matrix(1,0,0,-1,0,120.8988)" stroke-width=".4" stroke-linecap="butt" stroke-dasharray="1.48,.64" stroke-linejoin="round" fill="none" stroke="#b0b0b0" stroke-opacity=".6" d="M29.111876 24.40875H185.74346"/>
</g>
<path transform="matrix(1,0,0,-1,0,120.8988)" d="M29.111876 24.40875H32.111875"/>
<path transform="matrix(1,0,0,-1,0,120.8988)" stroke-width=".6" stroke-linecap="butt" stroke-linejoin="round" fill="none" stroke="#000000" d="M29.111876 24.40875H32.111875"/>
<use data-text="0" xlink:href="#font_1_48" transform="matrix(8,0,0,-8,21.611876,99.2713)"/>
<g clip-path="url(#clip_3)">
<path transform="matrix(1,0,0,-1,0,120.8988)" stroke-width=".4" stroke-linecap="butt" stroke-dasharray="1.48,.64" stroke-linejoin="round" fill="none" stroke="#b0b0b0" stroke-opacity=".6" d="M29.111876 45.47595H185.74346"/>
</g>
<path transform="matrix(1,0,0,-1,0,120.8988)" d="M29.111876 45.47595H32.111875"/>
<path transform="matrix(1,0,0,-1,0,120.8988)" stroke-width=".6" stroke-linecap="butt" stroke-linejoin="round" fill="none" stroke="#000000" d="M29.111876 45.47595H32.111875"/>
<use data-text="2" xlink:href="#font_1_50" transform="matrix(8,0,0,-8,17.611876,78.2041)"/>
<use data-text="5" xlink:href="#font_1_53" transform="matrix(8,0,0,-8,21.611876,78.2041)"/>
<g clip-path="url(#clip_4)">
<path transform="matrix(1,0,0,-1,0,120.8988)" stroke-width=".4" stroke-linecap="butt" stroke-dasharray="1.48,.64" stroke-linejoin="round" fill="none" stroke="#b0b0b0" stroke-opacity=".6" d="M29.111876 66.54315H185.74346"/>
</g>
<path transform="matrix(1,0,0,-1,0,120.8988)" d="M29.111876 66.54315H32.111875"/>
<path transform="matrix(1,0,0,-1,0,120.8988)" stroke-width=".6" stroke-linecap="butt" stroke-linejoin="round" fill="none" stroke="#000000" d="M29.111876 66.54315H32.111875"/>
<use data-text="5" xlink:href="#font_1_53" transform="matrix(8,0,0,-8,17.611876,57.1369)"/>
<use data-text="0" xlink:href="#font_1_48" transform="matrix(8,0,0,-8,21.611876,57.1369)"/>
<g clip-path="url(#clip_5)">
<path transform="matrix(1,0,0,-1,0,120.8988)" stroke-width=".4" stroke-linecap="butt" stroke-dasharray="1.48,.64" stroke-linejoin="round" fill="none" stroke="#b0b0b0" stroke-opacity=".6" d="M29.111876 87.61035H185.74346"/>
</g>
<path transform="matrix(1,0,0,-1,0,120.8988)" d="M29.111876 87.61035H32.111875"/>
<path transform="matrix(1,0,0,-1,0,120.8988)" stroke-width=".6" stroke-linecap="butt" stroke-linejoin="round" fill="none" stroke="#000000" d="M29.111876 87.61035H32.111875"/>
<use data-text="7" xlink:href="#font_1_55" transform="matrix(8,0,0,-8,17.611876,36.069704)"/>
<use data-text="5" xlink:href="#font_1_53" transform="matrix(8,0,0,-8,21.611876,36.069704)"/>
<g clip-path="url(#clip_6)">
<path transform="matrix(1,0,0,-1,0,120.8988)" stroke-width=".4" stroke-linecap="butt" stroke-dasharray="1.48,.64" stroke-linejoin="round" fill="none" stroke="#b0b0b0" stroke-opacity=".6" d="M29.111876 108.67755H185.74346"/>
</g>
<path transform="matrix(1,0,0,-1,0,120.8988)" d="M29.111876 108.67755H32.111875"/>
<path transform="matrix(1,0,0,-1,0,120.8988)" stroke-width=".6" stroke-linecap="butt" stroke-linejoin="round" fill="none" stroke="#000000" d="M29.111876 108.67755H32.111875"/>
<use data-text="1" xlink:href="#font_1_49" transform="matrix(8,0,0,-8,13.611875,15.002502)"/>
<use data-text="0" xlink:href="#font_1_48" transform="matrix(8,0,0,-8,17.611874,15.002502)"/>
<use data-text="0" xlink:href="#font_1_48" transform="matrix(8,0,0,-8,21.611874,15.002502)"/>
<use data-text="S" xlink:href="#font_1_83" transform="matrix(0,-9,-9,-0,7.69,84.35565)"/>
<use data-text="u" xlink:href="#font_1_117" transform="matrix(0,-9,-9,-0,7.69,79.351657)"/>
<use data-text="c" xlink:href="#font_1_99" transform="matrix(0,-9,-9,-0,7.69,74.851657)"/>
<use data-text="c" xlink:href="#font_1_99" transform="matrix(0,-9,-9,-0,7.69,70.85565)"/>
<use data-text="e" xlink:href="#font_1_101" transform="matrix(0,-9,-9,-0,7.69,66.85965)"/>
<use data-text="s" xlink:href="#font_1_115" transform="matrix(0,-9,-9,-0,7.69,62.863649)"/>
<use data-text="s" xlink:href="#font_1_115" transform="matrix(0,-9,-9,-0,7.69,59.362649)"/>
<use data-text=" " xlink:href="#font_1_32" transform="matrix(0,-9,-9,-0,7.69,55.86165)"/>
<use data-text="r" xlink:href="#font_1_114" transform="matrix(0,-9,-9,-0,7.69,53.61165)"/>
<use data-text="a" xlink:href="#font_1_97" transform="matrix(0,-9,-9,-0,7.69,50.614648)"/>
<use data-text="t" xlink:href="#font_1_116" transform="matrix(0,-9,-9,-0,7.69,46.618646)"/>
<use data-text="e" xlink:href="#font_1_101" transform="matrix(0,-9,-9,-0,7.69,44.116647)"/>
<use data-text=" " xlink:href="#font_1_32" transform="matrix(0,-9,-9,-0,7.69,40.120645)"/>
<use data-text="(" xlink:href="#font_1_40" transform="matrix(0,-9,-9,-0,7.69,37.870645)"/>
<use data-text="%" xlink:href="#font_1_37" transform="matrix(0,-9,-9,-0,7.69,34.873643)"/>
<use data-text=")" xlink:href="#font_1_41" transform="matrix(0,-9,-9,-0,7.69,27.37664)"/>
<path transform="matrix(1,0,0,-1,0,120.8988)" stroke-width=".6" stroke-linecap="square" stroke-miterlimit="10" stroke-linejoin="miter" fill="none" stroke="#000000" d="M29.111876 24.40875V108.67755"/>
<path transform="matrix(1,0,0,-1,0,120.8988)" stroke-width=".6" stroke-linecap="square" stroke-miterlimit="10" stroke-linejoin="miter" fill="none" stroke="#000000" d="M29.111876 24.40875H185.74346"/>
<g clip-path="url(#clip_7)">
<path transform="matrix(1,0,0,-1,0,120.8988)" stroke-width=".7" stroke-linecap="butt" stroke-linejoin="round" fill="none" stroke="#a8a8a8" d="M42.16451 28.200846V40.841169"/>
<path transform="matrix(1,0,0,-1,0,120.8988)" stroke-width=".7" stroke-linecap="butt" stroke-linejoin="round" fill="none" stroke="#a8a8a8" d="M107.427669 44.970338V78.00371"/>
<path transform="matrix(1,0,0,-1,0,120.8988)" stroke-width=".7" stroke-linecap="butt" stroke-linejoin="round" fill="none" stroke="#a8a8a8" d="M172.69083 98.56529V105.3068"/>
</g>
<g clip-path="url(#clip_8)">
<path transform="matrix(1,0,0,-1,0,120.8988)" stroke-width="1.4" stroke-linecap="butt" stroke-dasharray="5.18,2.24" stroke-linejoin="round" fill="none" stroke="#d6604d" d="M29.111876 96.87992H185.74346"/>
</g>
<g clip-path="url(#clip_9)">
<path transform="matrix(1,0,0,-1,0,120.8988)" d="M44.16451 28.200846H40.16451" fill="#a8a8a8"/>
<path transform="matrix(1,0,0,-1,0,120.8988)" stroke-width=".7" stroke-linecap="butt" stroke-linejoin="round" fill="none" stroke="#a8a8a8" d="M44.16451 28.200846H40.16451"/>
<path transform="matrix(1,0,0,-1,0,120.8988)" d="M109.427669 44.970338H105.427669" fill="#a8a8a8"/>
<path transform="matrix(1,0,0,-1,0,120.8988)" stroke-width=".7" stroke-linecap="butt" stroke-linejoin="round" fill="none" stroke="#a8a8a8" d="M109.427669 44.970338H105.427669"/>
<path transform="matrix(1,0,0,-1,0,120.8988)" d="M174.69083 98.56529H170.69083" fill="#a8a8a8"/>
<path transform="matrix(1,0,0,-1,0,120.8988)" stroke-width=".7" stroke-linecap="butt" stroke-linejoin="round" fill="none" stroke="#a8a8a8" d="M174.69083 98.56529H170.69083"/>
</g>
<g clip-path="url(#clip_10)">
<path transform="matrix(1,0,0,-1,0,120.8988)" d="M44.16451 40.841169H40.16451" fill="#a8a8a8"/>
<path transform="matrix(1,0,0,-1,0,120.8988)" stroke-width=".7" stroke-linecap="butt" stroke-linejoin="round" fill="none" stroke="#a8a8a8" d="M44.16451 40.841169H40.16451"/>
<path transform="matrix(1,0,0,-1,0,120.8988)" d="M109.427669 78.00371H105.427669" fill="#a8a8a8"/>
<path transform="matrix(1,0,0,-1,0,120.8988)" stroke-width=".7" stroke-linecap="butt" stroke-linejoin="round" fill="none" stroke="#a8a8a8" d="M109.427669 78.00371H105.427669"/>
<path transform="matrix(1,0,0,-1,0,120.8988)" d="M174.69083 105.3068H170.69083" fill="#a8a8a8"/>
<path transform="matrix(1,0,0,-1,0,120.8988)" stroke-width=".7" stroke-linecap="butt" stroke-linejoin="round" fill="none" stroke="#a8a8a8" d="M174.69083 105.3068H170.69083"/>
</g>
<use data-text="(" xlink:href="#font_11_40" transform="matrix(10,0,0,-10,43.208917,8.221252)"/>
<use data-text="a" xlink:href="#font_11_97" transform="matrix(10,0,0,-10,46.538919,8.221252)"/>
<use data-text=")" xlink:href="#font_11_41" transform="matrix(10,0,0,-10,51.538919,8.221252)"/>
<use data-text=" " xlink:href="#font_11_32" transform="matrix(10,0,0,-10,54.86892,8.221252)"/>
<use data-text="B" xlink:href="#font_11_66" transform="matrix(10,0,0,-10,57.36892,8.221252)"/>
<use data-text="C" xlink:href="#font_11_67" transform="matrix(10,0,0,-10,64.03892,8.221252)"/>
<use data-text=" " xlink:href="#font_11_32" transform="matrix(10,0,0,-10,71.25892,8.221252)"/>
<use data-text="n" xlink:href="#font_11_110" transform="matrix(10,0,0,-10,73.75892,8.221252)"/>
<use data-text="e" xlink:href="#font_11_101" transform="matrix(10,0,0,-10,79.31892,8.221252)"/>
<use data-text="e" xlink:href="#font_11_101" transform="matrix(10,0,0,-10,83.75892,8.221252)"/>
<use data-text="d" xlink:href="#font_11_100" transform="matrix(10,0,0,-10,88.19892,8.221252)"/>
<use data-text="s" xlink:href="#font_11_115" transform="matrix(10,0,0,-10,93.75892,8.221252)"/>
<use data-text=" " xlink:href="#font_11_32" transform="matrix(10,0,0,-10,97.64892,8.221252)"/>
<use data-text="m" xlink:href="#font_11_109" transform="matrix(10,0,0,-10,100.14892,8.221252)"/>
<use data-text="o" xlink:href="#font_11_111" transform="matrix(10,0,0,-10,108.47892,8.221252)"/>
<use data-text="r" xlink:href="#font_11_114" transform="matrix(10,0,0,-10,113.47892,8.221252)"/>
<use data-text="e" xlink:href="#font_11_101" transform="matrix(10,0,0,-10,117.91892,8.221252)"/>
<use data-text=" " xlink:href="#font_11_32" transform="matrix(10,0,0,-10,122.358928,8.221252)"/>
<use data-text="t" xlink:href="#font_11_116" transform="matrix(10,0,0,-10,124.858928,8.221252)"/>
<use data-text="a" xlink:href="#font_11_97" transform="matrix(10,0,0,-10,128.18892,8.221252)"/>
<use data-text="r" xlink:href="#font_11_114" transform="matrix(10,0,0,-10,133.18892,8.221252)"/>
<use data-text="g" xlink:href="#font_11_103" transform="matrix(10,0,0,-10,137.62892,8.221252)"/>
<use data-text="e" xlink:href="#font_11_101" transform="matrix(10,0,0,-10,142.62892,8.221252)"/>
<use data-text="t" xlink:href="#font_11_116" transform="matrix(10,0,0,-10,147.06893,8.221252)"/>
<use data-text=" " xlink:href="#font_11_32" transform="matrix(10,0,0,-10,150.39893,8.221252)"/>
<use data-text="d" xlink:href="#font_11_100" transform="matrix(10,0,0,-10,152.89893,8.221252)"/>
<use data-text="a" xlink:href="#font_11_97" transform="matrix(10,0,0,-10,158.45893,8.221252)"/>
<use data-text="t" xlink:href="#font_11_116" transform="matrix(10,0,0,-10,163.45893,8.221252)"/>
<use data-text="a" xlink:href="#font_11_97" transform="matrix(10,0,0,-10,166.78893,8.221252)"/>
<g clip-path="url(#clip_12)">
<path transform="matrix(1,0,0,-1,0,120.8988)" stroke-width="1.2" stroke-linecap="square" stroke-linejoin="round" fill="none" stroke="#a8a8a8" d="M42.16451 34.521009 107.427669 61.487024 172.69083 101.93604"/>
<g clip-path="url(#clip_13)">
<path transform="matrix(1,0,0,-1,42.164506,86.37779)" d="M0-2.25C.596707-2.25 1.169055-2.012926 1.59099-1.59099 2.012926-1.169055 2.25-.596707 2.25 0 2.25 .596707 2.012926 1.169055 1.59099 1.59099 1.169055 2.012926 .596707 2.25 0 2.25-.596707 2.25-1.169055 2.012926-1.59099 1.59099-2.012926 1.169055-2.25 .596707-2.25 0-2.25-.596707-2.012926-1.169055-1.59099-1.59099-1.169055-2.012926-.596707-2.25 0-2.25Z" fill="#a8a8a8"/>
<path transform="matrix(1,0,0,-1,42.164506,86.37779)" stroke-width=".4" stroke-linecap="butt" stroke-linejoin="round" fill="none" stroke="#000000" d="M0-2.25C.596707-2.25 1.169055-2.012926 1.59099-1.59099 2.012926-1.169055 2.25-.596707 2.25 0 2.25 .596707 2.012926 1.169055 1.59099 1.59099 1.169055 2.012926 .596707 2.25 0 2.25-.596707 2.25-1.169055 2.012926-1.59099 1.59099-2.012926 1.169055-2.25 .596707-2.25 0-2.25-.596707-2.012926-1.169055-1.59099-1.59099-1.169055-2.012926-.596707-2.25 0-2.25Z"/>
</g>
<g clip-path="url(#clip_14)">
<path transform="matrix(1,0,0,-1,107.427669,59.411775)" d="M0-2.25C.596707-2.25 1.169055-2.012926 1.59099-1.59099 2.012926-1.169055 2.25-.596707 2.25 0 2.25 .596707 2.012926 1.169055 1.59099 1.59099 1.169055 2.012926 .596707 2.25 0 2.25-.596707 2.25-1.169055 2.012926-1.59099 1.59099-2.012926 1.169055-2.25 .596707-2.25 0-2.25-.596707-2.012926-1.169055-1.59099-1.59099-1.169055-2.012926-.596707-2.25 0-2.25Z" fill="#a8a8a8"/>
<path transform="matrix(1,0,0,-1,107.427669,59.411775)" stroke-width=".4" stroke-linecap="butt" stroke-linejoin="round" fill="none" stroke="#000000" d="M0-2.25C.596707-2.25 1.169055-2.012926 1.59099-1.59099 2.012926-1.169055 2.25-.596707 2.25 0 2.25 .596707 2.012926 1.169055 1.59099 1.59099 1.169055 2.012926 .596707 2.25 0 2.25-.596707 2.25-1.169055 2.012926-1.59099 1.59099-2.012926 1.169055-2.25 .596707-2.25 0-2.25-.596707-2.012926-1.169055-1.59099-1.59099-1.169055-2.012926-.596707-2.25 0-2.25Z"/>
</g>
<g clip-path="url(#clip_15)">
<path transform="matrix(1,0,0,-1,172.69083,18.96275)" d="M0-2.25C.596707-2.25 1.169055-2.012926 1.59099-1.59099 2.012926-1.169055 2.25-.596707 2.25 0 2.25 .596707 2.012926 1.169055 1.59099 1.59099 1.169055 2.012926 .596707 2.25 0 2.25-.596707 2.25-1.169055 2.012926-1.59099 1.59099-2.012926 1.169055-2.25 .596707-2.25 0-2.25-.596707-2.012926-1.169055-1.59099-1.59099-1.169055-2.012926-.596707-2.25 0-2.25Z" fill="#a8a8a8"/>
<path transform="matrix(1,0,0,-1,172.69083,18.96275)" stroke-width=".4" stroke-linecap="butt" stroke-linejoin="round" fill="none" stroke="#000000" d="M0-2.25C.596707-2.25 1.169055-2.012926 1.59099-1.59099 2.012926-1.169055 2.25-.596707 2.25 0 2.25 .596707 2.012926 1.169055 1.59099 1.59099 1.169055 2.012926 .596707 2.25 0 2.25-.596707 2.25-1.169055 2.012926-1.59099 1.59099-2.012926 1.169055-2.25 .596707-2.25 0-2.25-.596707-2.012926-1.169055-1.59099-1.59099-1.169055-2.012926-.596707-2.25 0-2.25Z"/>
</g>
</g>
<use data-text="M" xlink:href="#font_1_77" transform="matrix(6.5,0,0,-6.5,157.28096,65.42343)"/>
<use data-text="I" xlink:href="#font_1_73" transform="matrix(6.5,0,0,-6.5,163.05947,65.42343)"/>
<use data-text="P" xlink:href="#font_1_80" transform="matrix(6.5,0,0,-6.5,165.22397,65.42343)"/>
<use data-text="(" xlink:href="#font_1_40" transform="matrix(6.5,0,0,-6.5,135.15596,72.2328)"/>
<use data-text="s" xlink:href="#font_1_115" transform="matrix(6.5,0,0,-6.5,137.32047,72.2328)"/>
<use data-text="c" xlink:href="#font_1_99" transform="matrix(6.5,0,0,-6.5,139.84897,72.2328)"/>
<use data-text="a" xlink:href="#font_1_97" transform="matrix(6.5,0,0,-6.5,142.73497,72.2328)"/>
<use data-text="l" xlink:href="#font_1_108" transform="matrix(6.5,0,0,-6.5,145.62097,72.2328)"/>
<use data-text="e" xlink:href="#font_1_101" transform="matrix(6.5,0,0,-6.5,147.42798,72.2328)"/>
<use data-text=" " xlink:href="#font_1_32" transform="matrix(6.5,0,0,-6.5,150.31398,72.2328)"/>
<use data-text="t" xlink:href="#font_1_116" transform="matrix(6.5,0,0,-6.5,151.93898,72.2328)"/>
<use data-text="a" xlink:href="#font_1_97" transform="matrix(6.5,0,0,-6.5,153.74599,72.2328)"/>
<use data-text="r" xlink:href="#font_1_114" transform="matrix(6.5,0,0,-6.5,156.63199,72.2328)"/>
<use data-text="g" xlink:href="#font_1_103" transform="matrix(6.5,0,0,-6.5,158.7965,72.2328)"/>
<use data-text="e" xlink:href="#font_1_101" transform="matrix(6.5,0,0,-6.5,162.0465,72.2328)"/>
<use data-text="t" xlink:href="#font_1_116" transform="matrix(6.5,0,0,-6.5,164.9325,72.2328)"/>
<use data-text=")" xlink:href="#font_1_41" transform="matrix(6.5,0,0,-6.5,166.7395,72.2328)"/>
<path transform="matrix(1,0,0,-1,0,120.8988)" stroke-width="1.2" stroke-linecap="square" stroke-linejoin="round" fill="none" stroke="#a8a8a8" d="M171.44345 53.642564H179.89345"/>
<path transform="matrix(1,0,0,-1,0,120.8988)" d="M175.66846 51.392564C176.26517 51.392564 176.83751 51.62964 177.25945 52.051576 177.68138 52.47351 177.91846 53.045858 177.91846 53.642564 177.91846 54.23927 177.68138 54.81162 177.25945 55.233556 176.83751 55.65549 176.26517 55.892564 175.66846 55.892564 175.07175 55.892564 174.4994 55.65549 174.07747 55.233556 173.65554 54.81162 173.41846 54.23927 173.41846 53.642564 173.41846 53.045858 173.65554 52.47351 174.07747 52.051576 174.4994 51.62964 175.07175 51.392564 175.66846 51.392564Z" fill="#a8a8a8"/>
<path transform="matrix(1,0,0,-1,0,120.8988)" stroke-width=".4" stroke-linecap="butt" stroke-linejoin="round" fill="none" stroke="#000000" d="M175.66846 51.392564C176.26517 51.392564 176.83751 51.62964 177.25945 52.051576 177.68138 52.47351 177.91846 53.045858 177.91846 53.642564 177.91846 54.23927 177.68138 54.81162 177.25945 55.233556 176.83751 55.65549 176.26517 55.892564 175.66846 55.892564 175.07175 55.892564 174.4994 55.65549 174.07747 55.233556 173.65554 54.81162 173.41846 54.23927 173.41846 53.642564 173.41846 53.045858 173.65554 52.47351 174.07747 52.051576 174.4994 51.62964 175.07175 51.392564 175.66846 51.392564Z"/>
<use data-text="G" xlink:href="#font_1_71" transform="matrix(6.5,0,0,-6.5,142.85909,80.75468)"/>
<use data-text="L" xlink:href="#font_1_76" transform="matrix(6.5,0,0,-6.5,147.55208,80.75468)"/>
<use data-text="A" xlink:href="#font_1_65" transform="matrix(6.5,0,0,-6.5,151.52358,80.75468)"/>
<use data-text="M" xlink:href="#font_1_77" transform="matrix(6.5,0,0,-6.5,156.21657,80.75468)"/>
<use data-text="-" xlink:href="#font_1_45" transform="matrix(6.5,0,0,-6.5,161.99507,80.75468)"/>
<use data-text="O" xlink:href="#font_1_79" transform="matrix(6.5,0,0,-6.5,164.15958,80.75468)"/>
<use data-text="(" xlink:href="#font_1_40" transform="matrix(6.5,0,0,-6.5,124.35908,87.56406)"/>
<use data-text="K" xlink:href="#font_1_75" transform="matrix(6.5,0,0,-6.5,126.523578,87.56406)"/>
<use data-text="R" xlink:href="#font_1_82" transform="matrix(6.5,0,0,-6.5,131.21657,87.56406)"/>
<use data-text="1" xlink:href="#font_1_49" transform="matrix(6.5,0,0,-6.5,135.55207,87.56406)"/>
<use data-text="0" xlink:href="#font_1_48" transform="matrix(6.5,0,0,-6.5,138.80207,87.56406)"/>
<use data-text="0" xlink:href="#font_1_48" transform="matrix(6.5,0,0,-6.5,142.05207,87.56406)"/>
<use data-text=" " xlink:href="#font_1_32" transform="matrix(6.5,0,0,-6.5,145.30207,87.56406)"/>
<use data-text="+" xlink:href="#font_1_43" transform="matrix(6.5,0,0,-6.5,146.92707,87.56406)"/>
<use data-text=" " xlink:href="#font_1_32" transform="matrix(6.5,0,0,-6.5,150.59307,87.56406)"/>
<use data-text="U" xlink:href="#font_1_85" transform="matrix(6.5,0,0,-6.5,152.21807,87.56406)"/>
<use data-text="4" xlink:href="#font_1_52" transform="matrix(6.5,0,0,-6.5,156.91106,87.56406)"/>
<use data-text="0" xlink:href="#font_1_48" transform="matrix(6.5,0,0,-6.5,160.16106,87.56406)"/>
<use data-text="0" xlink:href="#font_1_48" transform="matrix(6.5,0,0,-6.5,163.41106,87.56406)"/>
<use data-text=")" xlink:href="#font_1_41" transform="matrix(6.5,0,0,-6.5,166.66106,87.56406)"/>
<path transform="matrix(1,0,0,-1,0,120.8988)" stroke-width="1.4" stroke-linecap="butt" stroke-dasharray="5.18,2.24" stroke-linejoin="round" fill="none" stroke="#d6604d" d="M171.44345 38.319128H179.89345"/>
<path transform="matrix(1,0,0,-1,0,120.8988)" d="M229.6003 24.40875H386.23188V108.67755H229.6003Z" fill="#ffffff"/>
<path transform="matrix(1,0,0,-1,0,120.8988)" d="M242.33457 24.40875V27.40875"/>
<path transform="matrix(1,0,0,-1,0,120.8988)" stroke-width=".6" stroke-linecap="butt" stroke-linejoin="round" fill="none" stroke="#000000" d="M242.33457 24.40875V27.40875"/>
<use data-text="1" xlink:href="#font_1_49" transform="matrix(8,0,0,-8,236.33457,105.55255)"/>
<use data-text="0" xlink:href="#font_1_48" transform="matrix(8,0,0,-8,240.33457,105.55255)"/>
<use data-text="0" xlink:href="#font_1_48" transform="matrix(8,0,0,-8,244.33457,105.55255)"/>
<path transform="matrix(1,0,0,-1,0,120.8988)" d="M306.00596 24.40875V27.40875"/>
<path transform="matrix(1,0,0,-1,0,120.8988)" stroke-width=".6" stroke-linecap="butt" stroke-linejoin="round" fill="none" stroke="#000000" d="M306.00596 24.40875V27.40875"/>
<use data-text="3" xlink:href="#font_1_51" transform="matrix(8,0,0,-8,300.00596,105.55255)"/>
<use data-text="0" xlink:href="#font_1_48" transform="matrix(8,0,0,-8,304.00596,105.55255)"/>
<use data-text="0" xlink:href="#font_1_48" transform="matrix(8,0,0,-8,308.00596,105.55255)"/>
<path transform="matrix(1,0,0,-1,0,120.8988)" d="M369.6773 24.40875V27.40875"/>
<path transform="matrix(1,0,0,-1,0,120.8988)" stroke-width=".6" stroke-linecap="butt" stroke-linejoin="round" fill="none" stroke="#000000" d="M369.6773 24.40875V27.40875"/>
<use data-text="5" xlink:href="#font_1_53" transform="matrix(8,0,0,-8,363.6773,105.55255)"/>
<use data-text="0" xlink:href="#font_1_48" transform="matrix(8,0,0,-8,367.6773,105.55255)"/>
<use data-text="0" xlink:href="#font_1_48" transform="matrix(8,0,0,-8,371.6773,105.55255)"/>
<use data-text="T" xlink:href="#font_1_84" transform="matrix(9,0,0,-9,262.47859,117.5213)"/>
<use data-text="o" xlink:href="#font_1_111" transform="matrix(9,0,0,-9,267.97758,117.5213)"/>
<use data-text="t" xlink:href="#font_1_116" transform="matrix(9,0,0,-9,272.47758,117.5213)"/>
<use data-text="a" xlink:href="#font_1_97" transform="matrix(9,0,0,-9,274.97959,117.5213)"/>
<use data-text="l" xlink:href="#font_1_108" transform="matrix(9,0,0,-9,278.9756,117.5213)"/>
<use data-text=" " xlink:href="#font_1_32" transform="matrix(9,0,0,-9,281.4776,117.5213)"/>
<use data-text="t" xlink:href="#font_1_116" transform="matrix(9,0,0,-9,283.7276,117.5213)"/>
<use data-text="r" xlink:href="#font_1_114" transform="matrix(9,0,0,-9,286.2296,117.5213)"/>
<use data-text="a" xlink:href="#font_1_97" transform="matrix(9,0,0,-9,289.22663,117.5213)"/>
<use data-text="i" xlink:href="#font_1_105" transform="matrix(9,0,0,-9,293.22264,117.5213)"/>
<use data-text="n" xlink:href="#font_1_110" transform="matrix(9,0,0,-9,295.72465,117.5213)"/>
<use data-text="i" xlink:href="#font_1_105" transform="matrix(9,0,0,-9,300.22465,117.5213)"/>
<use data-text="n" xlink:href="#font_1_110" transform="matrix(9,0,0,-9,302.72666,117.5213)"/>
<use data-text="g" xlink:href="#font_1_103" transform="matrix(9,0,0,-9,307.22666,117.5213)"/>
<use data-text=" " xlink:href="#font_1_32" transform="matrix(9,0,0,-9,311.72666,117.5213)"/>
<use data-text="t" xlink:href="#font_1_116" transform="matrix(9,0,0,-9,313.97666,117.5213)"/>
<use data-text="r" xlink:href="#font_1_114" transform="matrix(9,0,0,-9,316.47868,117.5213)"/>
<use data-text="a" xlink:href="#font_1_97" transform="matrix(9,0,0,-9,319.47569,117.5213)"/>
<use data-text="j" xlink:href="#font_1_106" transform="matrix(9,0,0,-9,323.47169,117.5213)"/>
<use data-text="e" xlink:href="#font_1_101" transform="matrix(9,0,0,-9,325.9737,117.5213)"/>
<use data-text="c" xlink:href="#font_1_99" transform="matrix(9,0,0,-9,329.9697,117.5213)"/>
<use data-text="t" xlink:href="#font_1_116" transform="matrix(9,0,0,-9,333.9657,117.5213)"/>
<use data-text="o" xlink:href="#font_1_111" transform="matrix(9,0,0,-9,336.4677,117.5213)"/>
<use data-text="r" xlink:href="#font_1_114" transform="matrix(9,0,0,-9,340.9677,117.5213)"/>
<use data-text="i" xlink:href="#font_1_105" transform="matrix(9,0,0,-9,343.96473,117.5213)"/>
<use data-text="e" xlink:href="#font_1_101" transform="matrix(9,0,0,-9,346.46675,117.5213)"/>
<use data-text="s" xlink:href="#font_1_115" transform="matrix(9,0,0,-9,350.46275,117.5213)"/>
<g clip-path="url(#clip_16)">
<path transform="matrix(1,0,0,-1,0,120.8988)" stroke-width=".4" stroke-linecap="butt" stroke-dasharray="1.48,.64" stroke-linejoin="round" fill="none" stroke="#b0b0b0" stroke-opacity=".6" d="M229.6003 24.40875H386.23188"/>
</g>
<path transform="matrix(1,0,0,-1,0,120.8988)" d="M229.6003 24.40875H232.6003"/>
<path transform="matrix(1,0,0,-1,0,120.8988)" stroke-width=".6" stroke-linecap="butt" stroke-linejoin="round" fill="none" stroke="#000000" d="M229.6003 24.40875H232.6003"/>
<g clip-path="url(#clip_17)">
<path transform="matrix(1,0,0,-1,0,120.8988)" stroke-width=".4" stroke-linecap="butt" stroke-dasharray="1.48,.64" stroke-linejoin="round" fill="none" stroke="#b0b0b0" stroke-opacity=".6" d="M229.6003 45.47595H386.23188"/>
</g>
<path transform="matrix(1,0,0,-1,0,120.8988)" d="M229.6003 45.47595H232.6003"/>
<path transform="matrix(1,0,0,-1,0,120.8988)" stroke-width=".6" stroke-linecap="butt" stroke-linejoin="round" fill="none" stroke="#000000" d="M229.6003 45.47595H232.6003"/>
<g clip-path="url(#clip_18)">
<path transform="matrix(1,0,0,-1,0,120.8988)" stroke-width=".4" stroke-linecap="butt" stroke-dasharray="1.48,.64" stroke-linejoin="round" fill="none" stroke="#b0b0b0" stroke-opacity=".6" d="M229.6003 66.54315H386.23188"/>
</g>
<path transform="matrix(1,0,0,-1,0,120.8988)" d="M229.6003 66.54315H232.6003"/>
<path transform="matrix(1,0,0,-1,0,120.8988)" stroke-width=".6" stroke-linecap="butt" stroke-linejoin="round" fill="none" stroke="#000000" d="M229.6003 66.54315H232.6003"/>
<g clip-path="url(#clip_19)">
<path transform="matrix(1,0,0,-1,0,120.8988)" stroke-width=".4" stroke-linecap="butt" stroke-dasharray="1.48,.64" stroke-linejoin="round" fill="none" stroke="#b0b0b0" stroke-opacity=".6" d="M229.6003 87.61035H386.23188"/>
</g>
<path transform="matrix(1,0,0,-1,0,120.8988)" d="M229.6003 87.61035H232.6003"/>
<path transform="matrix(1,0,0,-1,0,120.8988)" stroke-width=".6" stroke-linecap="butt" stroke-linejoin="round" fill="none" stroke="#000000" d="M229.6003 87.61035H232.6003"/>
<g clip-path="url(#clip_20)">
<path transform="matrix(1,0,0,-1,0,120.8988)" stroke-width=".4" stroke-linecap="butt" stroke-dasharray="1.48,.64" stroke-linejoin="round" fill="none" stroke="#b0b0b0" stroke-opacity=".6" d="M229.6003 108.67755H386.23188"/>
</g>
<path transform="matrix(1,0,0,-1,0,120.8988)" d="M229.6003 108.67755H232.6003"/>
<path transform="matrix(1,0,0,-1,0,120.8988)" stroke-width=".6" stroke-linecap="butt" stroke-linejoin="round" fill="none" stroke="#000000" d="M229.6003 108.67755H232.6003"/>
<g clip-path="url(#clip_21)">
<path transform="matrix(1,0,0,-1,0,120.8988)" stroke-width=".7" stroke-linecap="butt" stroke-linejoin="round" fill="none" stroke="#a8a8a8" d="M242.33457 28.8218V54.780817"/>
<path transform="matrix(1,0,0,-1,0,120.8988)" stroke-width=".7" stroke-linecap="butt" stroke-linejoin="round" fill="none" stroke="#a8a8a8" d="M306.00596 36.667943V68.14197"/>
<path transform="matrix(1,0,0,-1,0,120.8988)" stroke-width=".7" stroke-linecap="butt" stroke-linejoin="round" fill="none" stroke="#a8a8a8" d="M369.6773 88.77906V107.92912"/>
</g>
<g clip-path="url(#clip_22)">
<path transform="matrix(1,0,0,-1,0,120.8988)" stroke-width=".7" stroke-linecap="butt" stroke-linejoin="round" fill="none" stroke="#d6604d" d="M242.33457 26.757025V49.776494"/>
<path transform="matrix(1,0,0,-1,0,120.8988)" stroke-width=".7" stroke-linecap="butt" stroke-linejoin="round" fill="none" stroke="#d6604d" d="M306.00596 73.62026V101.88062"/>
<path transform="matrix(1,0,0,-1,0,120.8988)" stroke-width=".7" stroke-linecap="butt" stroke-linejoin="round" fill="none" stroke="#d6604d" d="M369.6773 83.30981V106.32928"/>
</g>
<g clip-path="url(#clip_23)">
<path transform="matrix(1,0,0,-1,0,120.8988)" d="M244.33457 28.8218H240.33457" fill="#a8a8a8"/>
<path transform="matrix(1,0,0,-1,0,120.8988)" stroke-width=".7" stroke-linecap="butt" stroke-linejoin="round" fill="none" stroke="#a8a8a8" d="M244.33457 28.8218H240.33457"/>
<path transform="matrix(1,0,0,-1,0,120.8988)" d="M308.00596 36.667943H304.00596" fill="#a8a8a8"/>
<path transform="matrix(1,0,0,-1,0,120.8988)" stroke-width=".7" stroke-linecap="butt" stroke-linejoin="round" fill="none" stroke="#a8a8a8" d="M308.00596 36.667943H304.00596"/>
<path transform="matrix(1,0,0,-1,0,120.8988)" d="M371.6773 88.77906H367.6773" fill="#a8a8a8"/>
<path transform="matrix(1,0,0,-1,0,120.8988)" stroke-width=".7" stroke-linecap="butt" stroke-linejoin="round" fill="none" stroke="#a8a8a8" d="M371.6773 88.77906H367.6773"/>
</g>
<g clip-path="url(#clip_24)">
<path transform="matrix(1,0,0,-1,0,120.8988)" d="M244.33457 54.780817H240.33457" fill="#a8a8a8"/>
<path transform="matrix(1,0,0,-1,0,120.8988)" stroke-width=".7" stroke-linecap="butt" stroke-linejoin="round" fill="none" stroke="#a8a8a8" d="M244.33457 54.780817H240.33457"/>
<path transform="matrix(1,0,0,-1,0,120.8988)" d="M308.00596 68.14197H304.00596" fill="#a8a8a8"/>
<path transform="matrix(1,0,0,-1,0,120.8988)" stroke-width=".7" stroke-linecap="butt" stroke-linejoin="round" fill="none" stroke="#a8a8a8" d="M308.00596 68.14197H304.00596"/>
<path transform="matrix(1,0,0,-1,0,120.8988)" d="M371.6773 107.92912H367.6773" fill="#a8a8a8"/>
<path transform="matrix(1,0,0,-1,0,120.8988)" stroke-width=".7" stroke-linecap="butt" stroke-linejoin="round" fill="none" stroke="#a8a8a8" d="M371.6773 107.92912H367.6773"/>
</g>
<g clip-path="url(#clip_25)">
<path transform="matrix(1,0,0,-1,0,120.8988)" d="M244.33457 26.757025H240.33457" fill="#d6604d"/>
<path transform="matrix(1,0,0,-1,0,120.8988)" stroke-width=".7" stroke-linecap="butt" stroke-linejoin="round" fill="none" stroke="#d6604d" d="M244.33457 26.757025H240.33457"/>
<path transform="matrix(1,0,0,-1,0,120.8988)" d="M308.00596 73.62026H304.00596" fill="#d6604d"/>
<path transform="matrix(1,0,0,-1,0,120.8988)" stroke-width=".7" stroke-linecap="butt" stroke-linejoin="round" fill="none" stroke="#d6604d" d="M308.00596 73.62026H304.00596"/>
<path transform="matrix(1,0,0,-1,0,120.8988)" d="M371.6773 83.30981H367.6773" fill="#d6604d"/>
<path transform="matrix(1,0,0,-1,0,120.8988)" stroke-width=".7" stroke-linecap="butt" stroke-linejoin="round" fill="none" stroke="#d6604d" d="M371.6773 83.30981H367.6773"/>
</g>
<g clip-path="url(#clip_26)">
<path transform="matrix(1,0,0,-1,0,120.8988)" d="M244.33457 49.776494H240.33457" fill="#d6604d"/>
<path transform="matrix(1,0,0,-1,0,120.8988)" stroke-width=".7" stroke-linecap="butt" stroke-linejoin="round" fill="none" stroke="#d6604d" d="M244.33457 49.776494H240.33457"/>
<path transform="matrix(1,0,0,-1,0,120.8988)" d="M308.00596 101.88062H304.00596" fill="#d6604d"/>
<path transform="matrix(1,0,0,-1,0,120.8988)" stroke-width=".7" stroke-linecap="butt" stroke-linejoin="round" fill="none" stroke="#d6604d" d="M308.00596 101.88062H304.00596"/>
<path transform="matrix(1,0,0,-1,0,120.8988)" d="M371.6773 106.32928H367.6773" fill="#d6604d"/>
<path transform="matrix(1,0,0,-1,0,120.8988)" stroke-width=".7" stroke-linecap="butt" stroke-linejoin="round" fill="none" stroke="#d6604d" d="M371.6773 106.32928H367.6773"/>
</g>
<path transform="matrix(1,0,0,-1,0,120.8988)" stroke-width=".6" stroke-linecap="square" stroke-miterlimit="10" stroke-linejoin="miter" fill="none" stroke="#000000" d="M229.6003 24.40875V108.67755"/>
<path transform="matrix(1,0,0,-1,0,120.8988)" stroke-width=".6" stroke-linecap="square" stroke-miterlimit="10" stroke-linejoin="miter" fill="none" stroke="#000000" d="M229.6003 24.40875H386.23188"/>
<g clip-path="url(#clip_27)">
<path transform="matrix(1,0,0,-1,0,120.8988)" stroke-width="1.2" stroke-linecap="square" stroke-linejoin="round" fill="none" stroke="#a8a8a8" d="M242.33457 37.04907 306.00596 49.68939 369.6773 104.46411"/>
<g clip-path="url(#clip_28)">
<path transform="matrix(1,0,0,-1,242.33457,83.84973)" d="M0-2.25C.596707-2.25 1.169055-2.012926 1.59099-1.59099 2.012926-1.169055 2.25-.596707 2.25 0 2.25 .596707 2.012926 1.169055 1.59099 1.59099 1.169055 2.012926 .596707 2.25 0 2.25-.596707 2.25-1.169055 2.012926-1.59099 1.59099-2.012926 1.169055-2.25 .596707-2.25 0-2.25-.596707-2.012926-1.169055-1.59099-1.59099-1.169055-2.012926-.596707-2.25 0-2.25Z" fill="#a8a8a8"/>
<path transform="matrix(1,0,0,-1,242.33457,83.84973)" stroke-width=".4" stroke-linecap="butt" stroke-linejoin="round" fill="none" stroke="#000000" d="M0-2.25C.596707-2.25 1.169055-2.012926 1.59099-1.59099 2.012926-1.169055 2.25-.596707 2.25 0 2.25 .596707 2.012926 1.169055 1.59099 1.59099 1.169055 2.012926 .596707 2.25 0 2.25-.596707 2.25-1.169055 2.012926-1.59099 1.59099-2.012926 1.169055-2.25 .596707-2.25 0-2.25-.596707-2.012926-1.169055-1.59099-1.59099-1.169055-2.012926-.596707-2.25 0-2.25Z"/>
</g>
<g clip-path="url(#clip_29)">
<path transform="matrix(1,0,0,-1,306.00596,71.20941)" d="M0-2.25C.596707-2.25 1.169055-2.012926 1.59099-1.59099 2.012926-1.169055 2.25-.596707 2.25 0 2.25 .596707 2.012926 1.169055 1.59099 1.59099 1.169055 2.012926 .596707 2.25 0 2.25-.596707 2.25-1.169055 2.012926-1.59099 1.59099-2.012926 1.169055-2.25 .596707-2.25 0-2.25-.596707-2.012926-1.169055-1.59099-1.59099-1.169055-2.012926-.596707-2.25 0-2.25Z" fill="#a8a8a8"/>
<path transform="matrix(1,0,0,-1,306.00596,71.20941)" stroke-width=".4" stroke-linecap="butt" stroke-linejoin="round" fill="none" stroke="#000000" d="M0-2.25C.596707-2.25 1.169055-2.012926 1.59099-1.59099 2.012926-1.169055 2.25-.596707 2.25 0 2.25 .596707 2.012926 1.169055 1.59099 1.59099 1.169055 2.012926 .596707 2.25 0 2.25-.596707 2.25-1.169055 2.012926-1.59099 1.59099-2.012926 1.169055-2.25 .596707-2.25 0-2.25-.596707-2.012926-1.169055-1.59099-1.59099-1.169055-2.012926-.596707-2.25 0-2.25Z"/>
</g>
<g clip-path="url(#clip_30)">
<path transform="matrix(1,0,0,-1,369.67735,16.434693)" d="M0-2.25C.596707-2.25 1.169055-2.012926 1.59099-1.59099 2.012926-1.169055 2.25-.596707 2.25 0 2.25 .596707 2.012926 1.169055 1.59099 1.59099 1.169055 2.012926 .596707 2.25 0 2.25-.596707 2.25-1.169055 2.012926-1.59099 1.59099-2.012926 1.169055-2.25 .596707-2.25 0-2.25-.596707-2.012926-1.169055-1.59099-1.59099-1.169055-2.012926-.596707-2.25 0-2.25Z" fill="#a8a8a8"/>
<path transform="matrix(1,0,0,-1,369.67735,16.434693)" stroke-width=".4" stroke-linecap="butt" stroke-linejoin="round" fill="none" stroke="#000000" d="M0-2.25C.596707-2.25 1.169055-2.012926 1.59099-1.59099 2.012926-1.169055 2.25-.596707 2.25 0 2.25 .596707 2.012926 1.169055 1.59099 1.59099 1.169055 2.012926 .596707 2.25 0 2.25-.596707 2.25-1.169055 2.012926-1.59099 1.59099-2.012926 1.169055-2.25 .596707-2.25 0-2.25-.596707-2.012926-1.169055-1.59099-1.59099-1.169055-2.012926-.596707-2.25 0-2.25Z"/>
</g>
</g>
<use data-text="(" xlink:href="#font_11_40" transform="matrix(10,0,0,-10,246.2989,8.221252)"/>
<use data-text="b" xlink:href="#font_11_98" transform="matrix(10,0,0,-10,249.6289,8.221252)"/>
<use data-text=")" xlink:href="#font_11_41" transform="matrix(10,0,0,-10,255.1889,8.221252)"/>
<use data-text=" " xlink:href="#font_11_32" transform="matrix(10,0,0,-10,258.5189,8.221252)"/>
<use data-text="A" xlink:href="#font_11_65" transform="matrix(10,0,0,-10,261.0189,8.221252)"/>
<use data-text="u" xlink:href="#font_11_117" transform="matrix(10,0,0,-10,268.2389,8.221252)"/>
<use data-text="x" xlink:href="#font_11_120" transform="matrix(10,0,0,-10,273.7989,8.221252)"/>
<use data-text=" " xlink:href="#font_11_32" transform="matrix(10,0,0,-10,278.7989,8.221252)"/>
<use data-text="s" xlink:href="#font_11_115" transform="matrix(10,0,0,-10,281.2989,8.221252)"/>
<use data-text="u" xlink:href="#font_11_117" transform="matrix(10,0,0,-10,285.1889,8.221252)"/>
<use data-text="b" xlink:href="#font_11_98" transform="matrix(10,0,0,-10,290.7489,8.221252)"/>
<use data-text="s" xlink:href="#font_11_115" transform="matrix(10,0,0,-10,296.3089,8.221252)"/>
<use data-text="t" xlink:href="#font_11_116" transform="matrix(10,0,0,-10,300.1989,8.221252)"/>
<use data-text="i" xlink:href="#font_11_105" transform="matrix(10,0,0,-10,303.5289,8.221252)"/>
<use data-text="t" xlink:href="#font_11_116" transform="matrix(10,0,0,-10,306.3089,8.221252)"/>
<use data-text="u" xlink:href="#font_11_117" transform="matrix(10,0,0,-10,309.6389,8.221252)"/>
<use data-text="t" xlink:href="#font_11_116" transform="matrix(10,0,0,-10,315.19889,8.221252)"/>
<use data-text="e" xlink:href="#font_11_101" transform="matrix(10,0,0,-10,318.52888,8.221252)"/>
<use data-text="s" xlink:href="#font_11_115" transform="matrix(10,0,0,-10,322.96888,8.221252)"/>
<use data-text=" " xlink:href="#font_11_32" transform="matrix(10,0,0,-10,326.8589,8.221252)"/>
<use data-text="f" xlink:href="#font_11_102" transform="matrix(10,0,0,-10,329.3589,8.221252)"/>
<use data-text="o" xlink:href="#font_11_111" transform="matrix(10,0,0,-10,332.68888,8.221252)"/>
<use data-text="r" xlink:href="#font_11_114" transform="matrix(10,0,0,-10,337.68888,8.221252)"/>
<use data-text=" " xlink:href="#font_11_32" transform="matrix(10,0,0,-10,342.12889,8.221252)"/>
<use data-text="t" xlink:href="#font_11_116" transform="matrix(10,0,0,-10,344.62889,8.221252)"/>
<use data-text="a" xlink:href="#font_11_97" transform="matrix(10,0,0,-10,347.95887,8.221252)"/>
<use data-text="r" xlink:href="#font_11_114" transform="matrix(10,0,0,-10,352.95887,8.221252)"/>
<use data-text="g" xlink:href="#font_11_103" transform="matrix(10,0,0,-10,357.39888,8.221252)"/>
<use data-text="e" xlink:href="#font_11_101" transform="matrix(10,0,0,-10,362.39888,8.221252)"/>
<use data-text="t" xlink:href="#font_11_116" transform="matrix(10,0,0,-10,366.83888,8.221252)"/>
<g clip-path="url(#clip_31)">
<path transform="matrix(1,0,0,-1,0,120.8988)" stroke-width="1.4" stroke-linecap="square" stroke-linejoin="round" fill="none" stroke="#d6604d" d="M242.33457 32.83563 306.00596 91.82379 369.6773 100.25067"/>
<g clip-path="url(#clip_32)">
<path transform="matrix(1,0,0,-1,242.33457,88.06317)" d="M-2.25-2.25H2.25V2.25H-2.25Z" fill="#d6604d"/>
<path transform="matrix(1,0,0,-1,242.33457,88.06317)" stroke-width=".5" stroke-linecap="butt" stroke-miterlimit="10" stroke-linejoin="miter" fill="none" stroke="#000000" d="M-2.25-2.25H2.25V2.25H-2.25Z"/>
</g>
<g clip-path="url(#clip_33)">
<path transform="matrix(1,0,0,-1,306.00596,29.075013)" d="M-2.25-2.25H2.25V2.25H-2.25Z" fill="#d6604d"/>
<path transform="matrix(1,0,0,-1,306.00596,29.075013)" stroke-width=".5" stroke-linecap="butt" stroke-miterlimit="10" stroke-linejoin="miter" fill="none" stroke="#000000" d="M-2.25-2.25H2.25V2.25H-2.25Z"/>
</g>
<g clip-path="url(#clip_34)">
<path transform="matrix(1,0,0,-1,369.67735,20.648133)" d="M-2.25-2.25H2.25V2.25H-2.25Z" fill="#d6604d"/>
<path transform="matrix(1,0,0,-1,369.67735,20.648133)" stroke-width=".5" stroke-linecap="butt" stroke-miterlimit="10" stroke-linejoin="miter" fill="none" stroke="#000000" d="M-2.25-2.25H2.25V2.25H-2.25Z"/>
</g>
</g>
<g clip-path="url(#clip_35)">
<path transform="matrix(1,0,0,-1,0,120.8988)" stroke-width="1.4" stroke-linecap="butt" stroke-dasharray="5.18,2.24" stroke-linejoin="round" fill="none" stroke="#d6604d" d="M246.15485 32.83563 309.82624 91.82379 373.4976 100.25067"/>
<g clip-path="url(#clip_36)">
<path transform="matrix(1,0,0,-1,246.15485,88.06317)" d="M-2.25-2.25H2.25V2.25H-2.25Z" fill="#ffffff"/>
<path transform="matrix(1,0,0,-1,246.15485,88.06317)" stroke-width="1" stroke-linecap="butt" stroke-miterlimit="10" stroke-linejoin="miter" fill="none" stroke="#d6604d" d="M-2.25-2.25H2.25V2.25H-2.25Z"/>
</g>
<g clip-path="url(#clip_37)">
<path transform="matrix(1,0,0,-1,309.82624,29.075013)" d="M-2.25-2.25H2.25V2.25H-2.25Z" fill="#ffffff"/>
<path transform="matrix(1,0,0,-1,309.82624,29.075013)" stroke-width="1" stroke-linecap="butt" stroke-miterlimit="10" stroke-linejoin="miter" fill="none" stroke="#d6604d" d="M-2.25-2.25H2.25V2.25H-2.25Z"/>
</g>
<g clip-path="url(#clip_38)">
<path transform="matrix(1,0,0,-1,373.49763,20.648133)" d="M-2.25-2.25H2.25V2.25H-2.25Z" fill="#ffffff"/>
<path transform="matrix(1,0,0,-1,373.49763,20.648133)" stroke-width="1" stroke-linecap="butt" stroke-miterlimit="10" stroke-linejoin="miter" fill="none" stroke="#d6604d" d="M-2.25-2.25H2.25V2.25H-2.25Z"/>
</g>
</g>
<use data-text="M" xlink:href="#font_1_77" transform="matrix(6.5,0,0,-6.5,356.46937,50.076555)"/>
<use data-text="I" xlink:href="#font_1_73" transform="matrix(6.5,0,0,-6.5,362.24787,50.076555)"/>
<use data-text="P" xlink:href="#font_1_80" transform="matrix(6.5,0,0,-6.5,364.41236,50.076555)"/>
<use data-text="(" xlink:href="#font_1_40" transform="matrix(6.5,0,0,-6.5,334.34437,56.885927)"/>
<use data-text="s" xlink:href="#font_1_115" transform="matrix(6.5,0,0,-6.5,336.50886,56.885927)"/>
<use data-text="c" xlink:href="#font_1_99" transform="matrix(6.5,0,0,-6.5,339.03736,56.885927)"/>
<use data-text="a" xlink:href="#font_1_97" transform="matrix(6.5,0,0,-6.5,341.92335,56.885927)"/>
<use data-text="l" xlink:href="#font_1_108" transform="matrix(6.5,0,0,-6.5,344.80934,56.885927)"/>
<use data-text="e" xlink:href="#font_1_101" transform="matrix(6.5,0,0,-6.5,346.61634,56.885927)"/>
<use data-text=" " xlink:href="#font_1_32" transform="matrix(6.5,0,0,-6.5,349.50233,56.885927)"/>
<use data-text="t" xlink:href="#font_1_116" transform="matrix(6.5,0,0,-6.5,351.12733,56.885927)"/>
<use data-text="a" xlink:href="#font_1_97" transform="matrix(6.5,0,0,-6.5,352.93434,56.885927)"/>
<use data-text="r" xlink:href="#font_1_114" transform="matrix(6.5,0,0,-6.5,355.8203,56.885927)"/>
<use data-text="g" xlink:href="#font_1_103" transform="matrix(6.5,0,0,-6.5,357.9848,56.885927)"/>
<use data-text="e" xlink:href="#font_1_101" transform="matrix(6.5,0,0,-6.5,361.2348,56.885927)"/>
<use data-text="t" xlink:href="#font_1_116" transform="matrix(6.5,0,0,-6.5,364.1208,56.885927)"/>
<use data-text=")" xlink:href="#font_1_41" transform="matrix(6.5,0,0,-6.5,365.9278,56.885927)"/>
<path transform="matrix(1,0,0,-1,0,120.8988)" stroke-width="1.2" stroke-linecap="square" stroke-linejoin="round" fill="none" stroke="#a8a8a8" d="M370.63188 68.98944H380.38188"/>
<path transform="matrix(1,0,0,-1,0,120.8988)" d="M375.50688 66.73944C376.10359 66.73944 376.67594 66.97652 377.09788 67.398448 377.5198 67.82038 377.75688 68.39273 377.75688 68.98944 377.75688 69.58614 377.5198 70.15849 377.09788 70.58043 376.67594 71.002368 376.10359 71.23944 375.50688 71.23944 374.91017 71.23944 374.33784 71.002368 373.9159 70.58043 373.49397 70.15849 373.25688 69.58614 373.25688 68.98944 373.25688 68.39273 373.49397 67.82038 373.9159 67.398448 374.33784 66.97652 374.91017 66.73944 375.50688 66.73944Z" fill="#a8a8a8"/>
<path transform="matrix(1,0,0,-1,0,120.8988)" stroke-width=".4" stroke-linecap="butt" stroke-linejoin="round" fill="none" stroke="#000000" d="M375.50688 66.73944C376.10359 66.73944 376.67594 66.97652 377.09788 67.398448 377.5198 67.82038 377.75688 68.39273 377.75688 68.98944 377.75688 69.58614 377.5198 70.15849 377.09788 70.58043 376.67594 71.002368 376.10359 71.23944 375.50688 71.23944 374.91017 71.23944 374.33784 71.002368 373.9159 70.58043 373.49397 70.15849 373.25688 69.58614 373.25688 68.98944 373.25688 68.39273 373.49397 67.82038 373.9159 67.398448 374.33784 66.97652 374.91017 66.73944 375.50688 66.73944Z"/>
<use data-text="G" xlink:href="#font_1_71" transform="matrix(6.5,0,0,-6.5,342.0475,65.40781)"/>
<use data-text="L" xlink:href="#font_1_76" transform="matrix(6.5,0,0,-6.5,346.74049,65.40781)"/>
<use data-text="A" xlink:href="#font_1_65" transform="matrix(6.5,0,0,-6.5,350.71199,65.40781)"/>
<use data-text="M" xlink:href="#font_1_77" transform="matrix(6.5,0,0,-6.5,355.40498,65.40781)"/>
<use data-text="-" xlink:href="#font_1_45" transform="matrix(6.5,0,0,-6.5,361.18348,65.40781)"/>
<use data-text="O" xlink:href="#font_1_79" transform="matrix(6.5,0,0,-6.5,363.34797,65.40781)"/>
<use data-text="(" xlink:href="#font_1_40" transform="matrix(6.5,0,0,-6.5,325.90687,72.21718)"/>
<use data-text="s" xlink:href="#font_1_115" transform="matrix(6.5,0,0,-6.5,328.07136,72.21718)"/>
<use data-text="c" xlink:href="#font_1_99" transform="matrix(6.5,0,0,-6.5,330.59986,72.21718)"/>
<use data-text="a" xlink:href="#font_1_97" transform="matrix(6.5,0,0,-6.5,333.48585,72.21718)"/>
<use data-text="l" xlink:href="#font_1_108" transform="matrix(6.5,0,0,-6.5,336.37184,72.21718)"/>
<use data-text="e" xlink:href="#font_1_101" transform="matrix(6.5,0,0,-6.5,338.17884,72.21718)"/>
<use data-text=" " xlink:href="#font_1_32" transform="matrix(6.5,0,0,-6.5,341.06483,72.21718)"/>
<use data-text="a" xlink:href="#font_1_97" transform="matrix(6.5,0,0,-6.5,342.68983,72.21718)"/>
<use data-text="u" xlink:href="#font_1_117" transform="matrix(6.5,0,0,-6.5,345.5758,72.21718)"/>
<use data-text="x" xlink:href="#font_1_120" transform="matrix(6.5,0,0,-6.5,348.8258,72.21718)"/>
<use data-text="i" xlink:href="#font_1_105" transform="matrix(6.5,0,0,-6.5,352.0758,72.21718)"/>
<use data-text="l" xlink:href="#font_1_108" transform="matrix(6.5,0,0,-6.5,353.8828,72.21718)"/>
<use data-text="i" xlink:href="#font_1_105" transform="matrix(6.5,0,0,-6.5,355.68983,72.21718)"/>
<use data-text="a" xlink:href="#font_1_97" transform="matrix(6.5,0,0,-6.5,357.49684,72.21718)"/>
<use data-text="r" xlink:href="#font_1_114" transform="matrix(6.5,0,0,-6.5,360.3828,72.21718)"/>
<use data-text="y" xlink:href="#font_1_121" transform="matrix(6.5,0,0,-6.5,362.5473,72.21718)"/>
<use data-text=")" xlink:href="#font_1_41" transform="matrix(6.5,0,0,-6.5,365.7973,72.21718)"/>
<path transform="matrix(1,0,0,-1,0,120.8988)" stroke-width="1.4" stroke-linecap="square" stroke-linejoin="round" fill="none" stroke="#d6604d" d="M370.63188 53.658189H380.38188"/>
<path transform="matrix(1,0,0,-1,0,120.8988)" d="M373.25688 51.408189H377.75688V55.908189H373.25688Z" fill="#d6604d"/>
<path transform="matrix(1,0,0,-1,0,120.8988)" stroke-width=".5" stroke-linecap="butt" stroke-miterlimit="10" stroke-linejoin="miter" fill="none" stroke="#000000" d="M373.25688 51.408189H377.75688V55.908189H373.25688Z"/>
<use data-text="G" xlink:href="#font_1_71" transform="matrix(6.5,0,0,-6.5,342.0475,80.73905)"/>
<use data-text="L" xlink:href="#font_1_76" transform="matrix(6.5,0,0,-6.5,346.74049,80.73905)"/>
<use data-text="A" xlink:href="#font_1_65" transform="matrix(6.5,0,0,-6.5,350.71199,80.73905)"/>
<use data-text="M" xlink:href="#font_1_77" transform="matrix(6.5,0,0,-6.5,355.40498,80.73905)"/>
<use data-text="-" xlink:href="#font_1_45" transform="matrix(6.5,0,0,-6.5,361.18348,80.73905)"/>
<use data-text="O" xlink:href="#font_1_79" transform="matrix(6.5,0,0,-6.5,363.34797,80.73905)"/>
<use data-text="(" xlink:href="#font_1_40" transform="matrix(6.5,0,0,-6.5,334.34437,87.54843)"/>
<use data-text="s" xlink:href="#font_1_115" transform="matrix(6.5,0,0,-6.5,336.50886,87.54843)"/>
<use data-text="c" xlink:href="#font_1_99" transform="matrix(6.5,0,0,-6.5,339.03736,87.54843)"/>
<use data-text="a" xlink:href="#font_1_97" transform="matrix(6.5,0,0,-6.5,341.92335,87.54843)"/>
<use data-text="l" xlink:href="#font_1_108" transform="matrix(6.5,0,0,-6.5,344.80934,87.54843)"/>
<use data-text="e" xlink:href="#font_1_101" transform="matrix(6.5,0,0,-6.5,346.61634,87.54843)"/>
<use data-text=" " xlink:href="#font_1_32" transform="matrix(6.5,0,0,-6.5,349.50233,87.54843)"/>
<use data-text="t" xlink:href="#font_1_116" transform="matrix(6.5,0,0,-6.5,351.12733,87.54843)"/>
<use data-text="a" xlink:href="#font_1_97" transform="matrix(6.5,0,0,-6.5,352.93434,87.54843)"/>
<use data-text="r" xlink:href="#font_1_114" transform="matrix(6.5,0,0,-6.5,355.8203,87.54843)"/>
<use data-text="g" xlink:href="#font_1_103" transform="matrix(6.5,0,0,-6.5,357.9848,87.54843)"/>
<use data-text="e" xlink:href="#font_1_101" transform="matrix(6.5,0,0,-6.5,361.2348,87.54843)"/>
<use data-text="t" xlink:href="#font_1_116" transform="matrix(6.5,0,0,-6.5,364.1208,87.54843)"/>
<use data-text=")" xlink:href="#font_1_41" transform="matrix(6.5,0,0,-6.5,365.9278,87.54843)"/>
<path transform="matrix(1,0,0,-1,0,120.8988)" stroke-width="1.4" stroke-linecap="butt" stroke-dasharray="5.18,2.24" stroke-linejoin="round" fill="none" stroke="#d6604d" d="M370.63188 38.32694H380.38188"/>
<path transform="matrix(1,0,0,-1,0,120.8988)" d="M373.25688 36.07694H377.75688V40.57694H373.25688Z" fill="#ffffff"/>
<path transform="matrix(1,0,0,-1,0,120.8988)" stroke-width="1" stroke-linecap="butt" stroke-miterlimit="10" stroke-linejoin="miter" fill="none" stroke="#d6604d" d="M373.25688 36.07694H377.75688V40.57694H373.25688Z"/>
</g>
</svg>
